<svg id="erAuY6a2mj41" xmlns="http://www.w3.org/2000/svg" xmlns:xlink="http://www.w3.org/1999/xlink" viewBox="0 0 841.89 649.02" shape-rendering="geometricPrecision" text-rendering="geometricPrecision"><style><![CDATA[#erAuY6a2mj42_to {animation: erAuY6a2mj42_to__to 9090.90909090909ms linear infinite normal forwards}@keyframes erAuY6a2mj42_to__to { 0% {transform: translate(376.211903px,353.693573px)} 40% {transform: translate(376.211903px,353.693573px);animation-timing-function: cubic-bezier(0.42,0,0.58,1)} 76.666667% {transform: translate(376.211903px,353.693573px)} 100% {transform: translate(376.211903px,353.693573px)}} #erAuY6a2mj441_tr {animation: erAuY6a2mj441_tr__tr 9090.90909090909ms linear infinite normal forwards}@keyframes erAuY6a2mj441_tr__tr { 0% {transform: translate(139.32px,434.420013px) rotate(0deg)} 16.666667% {transform: translate(139.32px,434.420013px) rotate(0deg);animation-timing-function: cubic-bezier(0.42,0,0.58,1)} 46.666667% {transform: translate(139.32px,434.420013px) rotate(6.056422deg);animation-timing-function: cubic-bezier(0.42,0,0.58,1)} 100% {transform: translate(139.32px,434.420013px) rotate(111.546933deg)}} #erAuY6a2mj443 {animation: erAuY6a2mj443__m 9090.90909090909ms linear infinite normal forwards}@keyframes erAuY6a2mj443__m { 0% {d: path('M466.69,198.88L625.88,36.640196L720,234.48L491.37,253.25L466.69,198.88');animation-timing-function: cubic-bezier(0.42,0,0.58,1)} 36.666667% {d: path('M466.69,198.88L643.793762,35.418856L732.997333,219.68L491.37,253.25L466.69,198.88');animation-timing-function: cubic-bezier(0.42,0,0.58,1)} 56.666667% {d: path('M466.69,198.88L616.970046,29.312157L720.067566,228.57L491.37,253.25L466.69,198.88');animation-timing-function: cubic-bezier(0.42,0,0.58,1)} 80% {d: path('M466.69,198.88L619.412726,26.869477L720,229.9L491.37,253.25L466.69,198.88')} 100% {d: path('M466.69,198.88L619.412726,26.869477L720,229.9L491.37,253.25L466.69,198.88')}}]]></style><defs><linearGradient id="erAuY6a2mj42-fill" x1="376.21" y1="641.08" x2="376.21" y2="66.27" spreadMethod="pad" gradientUnits="userSpaceOnUse" gradientTransform="matrix(1 0 0 1 0 0)"><stop id="erAuY6a2mj42-fill-0" offset="0%" stop-color="rgba(247,163,26,0)"/><stop id="erAuY6a2mj42-fill-1" offset="100%" stop-color="rgb(12,13,245)"/></linearGradient><linearGradient id="erAuY6a2mj412-fill" x1="650.83" y1="188.25" x2="697.55" y2="188.25" spreadMethod="pad" gradientUnits="userSpaceOnUse" gradientTransform="matrix(1 0 0 1 0 0)"><stop id="erAuY6a2mj412-fill-0" offset="0%" stop-color="rgb(107,69,43)"/><stop id="erAuY6a2mj412-fill-1" offset="50%" stop-color="rgb(95,60,36)"/><stop id="erAuY6a2mj412-fill-2" offset="100%" stop-color="rgb(89,56,33)"/></linearGradient><linearGradient id="erAuY6a2mj421-fill" x1="362.24" y1="304.06" x2="439.34" y2="304.06" spreadMethod="pad" gradientUnits="userSpaceOnUse" gradientTransform="matrix(1 0 0 1 0 0)"><stop id="erAuY6a2mj421-fill-0" offset="0%" stop-color="rgb(89,56,33)"/><stop id="erAuY6a2mj421-fill-1" offset="50%" stop-color="rgb(95,60,36)"/><stop id="erAuY6a2mj421-fill-2" offset="100%" stop-color="rgb(107,69,43)"/></linearGradient><linearGradient id="erAuY6a2mj431-fill" x1="466" y1="282.41" x2="466" y2="207.5" spreadMethod="pad" gradientUnits="userSpaceOnUse" gradientTransform="matrix(1 0 0 1 0 0)"><stop id="erAuY6a2mj431-fill-0" offset="0%" stop-color="rgb(6,11,47)"/><stop id="erAuY6a2mj431-fill-1" offset="40%" stop-color="rgb(12,13,245)"/><stop id="erAuY6a2mj431-fill-2" offset="96%" stop-color="rgb(37,245,233)"/></linearGradient><linearGradient id="erAuY6a2mj433-fill" x1="416.41" y1="259.33" x2="455.26" y2="259.33" spreadMethod="pad" gradientUnits="userSpaceOnUse" gradientTransform="matrix(1 0 0 1 0 0)"><stop id="erAuY6a2mj433-fill-0" offset="0%" stop-color="rgb(6,11,47)"/><stop id="erAuY6a2mj433-fill-1" offset="40%" stop-color="rgb(12,13,245)"/><stop id="erAuY6a2mj433-fill-2" offset="96%" stop-color="rgb(37,245,233)"/></linearGradient><linearGradient id="erAuY6a2mj434-fill" x1="419.89" y1="252.73" x2="479.3" y2="252.73" spreadMethod="pad" gradientUnits="userSpaceOnUse" gradientTransform="matrix(1 0 0 1 0 0)"><stop id="erAuY6a2mj434-fill-0" offset="4%" stop-color="rgb(37,245,233)"/><stop id="erAuY6a2mj434-fill-1" offset="60%" stop-color="rgb(12,13,245)"/><stop id="erAuY6a2mj434-fill-2" offset="100%" stop-color="rgb(6,11,47)"/></linearGradient><linearGradient id="erAuY6a2mj435-fill" x1="376.42" y1="301.12" x2="419.89" y2="301.12" spreadMethod="pad" gradientUnits="userSpaceOnUse" gradientTransform="matrix(1 0 0 1 0 0)"><stop id="erAuY6a2mj435-fill-0" offset="0%" stop-color="rgb(89,56,33)"/><stop id="erAuY6a2mj435-fill-1" offset="50%" stop-color="rgb(95,60,36)"/><stop id="erAuY6a2mj435-fill-2" offset="100%" stop-color="rgb(107,69,43)"/></linearGradient><linearGradient id="erAuY6a2mj438-fill" x1="546.41" y1="402.49" x2="568.33" y2="396.21" spreadMethod="pad" gradientUnits="userSpaceOnUse" gradientTransform="matrix(1 0 0 1 0 0)"><stop id="erAuY6a2mj438-fill-0" offset="0%" stop-color="rgb(89,56,33)"/><stop id="erAuY6a2mj438-fill-1" offset="50%" stop-color="rgb(95,60,36)"/><stop id="erAuY6a2mj438-fill-2" offset="100%" stop-color="rgb(107,69,43)"/></linearGradient><linearGradient id="erAuY6a2mj440-fill" x1="559.15" y1="385.71" x2="581.43" y2="390.61" spreadMethod="pad" gradientUnits="userSpaceOnUse" gradientTransform="matrix(1 0 0 1 0 0)"><stop id="erAuY6a2mj440-fill-0" offset="0%" stop-color="rgb(89,56,33)"/><stop id="erAuY6a2mj440-fill-1" offset="50%" stop-color="rgb(95,60,36)"/><stop id="erAuY6a2mj440-fill-2" offset="100%" stop-color="rgb(107,69,43)"/></linearGradient><linearGradient id="erAuY6a2mj442-fill" x1="211.8" y1="272.94" x2="605.77" y2="272.94" spreadMethod="pad" gradientUnits="userSpaceOnUse" gradientTransform="matrix(1 0 0 1 0 0)"><stop id="erAuY6a2mj442-fill-0" offset="4%" stop-color="rgb(37,245,233)"/><stop id="erAuY6a2mj442-fill-1" offset="60%" stop-color="rgb(12,13,245)"/><stop id="erAuY6a2mj442-fill-2" offset="100%" stop-color="rgb(6,11,47)"/></linearGradient><linearGradient id="erAuY6a2mj443-fill" x1="502.56" y1="266.59" x2="667.96" y2="127.8" spreadMethod="pad" gradientUnits="userSpaceOnUse" gradientTransform="matrix(1 0 0 1 0 0)"><stop id="erAuY6a2mj443-fill-0" offset="4%" stop-color="rgb(37,245,233)"/><stop id="erAuY6a2mj443-fill-1" offset="60%" stop-color="rgb(12,13,245)"/><stop id="erAuY6a2mj443-fill-2" offset="100%" stop-color="rgb(6,11,47)"/></linearGradient><linearGradient id="erAuY6a2mj446-fill" x1="211.8" y1="272.94" x2="605.77" y2="272.94" spreadMethod="pad" gradientUnits="userSpaceOnUse" gradientTransform="matrix(1 0 0 1 0 0)"><stop id="erAuY6a2mj446-fill-0" offset="4%" stop-color="rgb(37,245,233)"/><stop id="erAuY6a2mj446-fill-1" offset="60%" stop-color="rgb(12,13,245)"/><stop id="erAuY6a2mj446-fill-2" offset="100%" stop-color="rgb(6,11,47)"/></linearGradient><linearGradient id="erAuY6a2mj453-fill" x1="643.73" y1="175.92" x2="690.45" y2="175.92" spreadMethod="pad" gradientUnits="userSpaceOnUse" gradientTransform="matrix(1 0 0 1 0 0)"><stop id="erAuY6a2mj453-fill-0" offset="0%" stop-color="rgb(107,69,43)"/><stop id="erAuY6a2mj453-fill-1" offset="50%" stop-color="rgb(95,60,36)"/><stop id="erAuY6a2mj453-fill-2" offset="100%" stop-color="rgb(89,56,33)"/></linearGradient><linearGradient id="erAuY6a2mj462-fill" x1="355.15" y1="291.73" x2="432.24" y2="291.73" spreadMethod="pad" gradientUnits="userSpaceOnUse" gradientTransform="matrix(1 0 0 1 0 0)"><stop id="erAuY6a2mj462-fill-0" offset="0%" stop-color="rgb(89,56,33)"/><stop id="erAuY6a2mj462-fill-1" offset="50%" stop-color="rgb(95,60,36)"/><stop id="erAuY6a2mj462-fill-2" offset="100%" stop-color="rgb(107,69,43)"/></linearGradient><linearGradient id="erAuY6a2mj470-fill" x1="458.9" y1="270.08" x2="458.9" y2="195.17" spreadMethod="pad" gradientUnits="userSpaceOnUse" gradientTransform="matrix(1 0 0 1 0 0)"><stop id="erAuY6a2mj470-fill-0" offset="0%" stop-color="rgb(6,11,47)"/><stop id="erAuY6a2mj470-fill-1" offset="40%" stop-color="rgb(12,13,245)"/><stop id="erAuY6a2mj470-fill-2" offset="96%" stop-color="rgb(37,245,233)"/></linearGradient><linearGradient id="erAuY6a2mj472-fill" x1="409.31" y1="247" x2="448.16" y2="247" spreadMethod="pad" gradientUnits="userSpaceOnUse" gradientTransform="matrix(1 0 0 1 0 0)"><stop id="erAuY6a2mj472-fill-0" offset="0%" stop-color="rgb(6,11,47)"/><stop id="erAuY6a2mj472-fill-1" offset="40%" stop-color="rgb(12,13,245)"/><stop id="erAuY6a2mj472-fill-2" offset="96%" stop-color="rgb(37,245,233)"/></linearGradient><linearGradient id="erAuY6a2mj473-fill" x1="412.79" y1="240.4" x2="472.2" y2="240.4" spreadMethod="pad" gradientUnits="userSpaceOnUse" gradientTransform="matrix(1 0 0 1 0 0)"><stop id="erAuY6a2mj473-fill-0" offset="4%" stop-color="rgb(37,245,233)"/><stop id="erAuY6a2mj473-fill-1" offset="60%" stop-color="rgb(12,13,245)"/><stop id="erAuY6a2mj473-fill-2" offset="100%" stop-color="rgb(6,11,47)"/></linearGradient><linearGradient id="erAuY6a2mj474-fill" x1="369.32" y1="288.79" x2="412.79" y2="288.79" spreadMethod="pad" gradientUnits="userSpaceOnUse" gradientTransform="matrix(1 0 0 1 0 0)"><stop id="erAuY6a2mj474-fill-0" offset="0%" stop-color="rgb(89,56,33)"/><stop id="erAuY6a2mj474-fill-1" offset="50%" stop-color="rgb(95,60,36)"/><stop id="erAuY6a2mj474-fill-2" offset="100%" stop-color="rgb(107,69,43)"/></linearGradient><linearGradient id="erAuY6a2mj477-fill" x1="539.31" y1="390.16" x2="561.24" y2="383.88" spreadMethod="pad" gradientUnits="userSpaceOnUse" gradientTransform="matrix(1 0 0 1 0 0)"><stop id="erAuY6a2mj477-fill-0" offset="0%" stop-color="rgb(89,56,33)"/><stop id="erAuY6a2mj477-fill-1" offset="50%" stop-color="rgb(95,60,36)"/><stop id="erAuY6a2mj477-fill-2" offset="100%" stop-color="rgb(107,69,43)"/></linearGradient><linearGradient id="erAuY6a2mj479-fill" x1="552.05" y1="373.38" x2="574.33" y2="378.28" spreadMethod="pad" gradientUnits="userSpaceOnUse" gradientTransform="matrix(1 0 0 1 0 0)"><stop id="erAuY6a2mj479-fill-0" offset="0%" stop-color="rgb(89,56,33)"/><stop id="erAuY6a2mj479-fill-1" offset="50%" stop-color="rgb(95,60,36)"/><stop id="erAuY6a2mj479-fill-2" offset="100%" stop-color="rgb(107,69,43)"/></linearGradient><linearGradient id="erAuY6a2mj485-fill" x1="660.52" y1="160.76" x2="707.23" y2="160.76" spreadMethod="pad" gradientUnits="userSpaceOnUse" gradientTransform="matrix(1 0 0 1 0 0)"><stop id="erAuY6a2mj485-fill-0" offset="0%" stop-color="rgb(107,69,43)"/><stop id="erAuY6a2mj485-fill-1" offset="50%" stop-color="rgb(95,60,36)"/><stop id="erAuY6a2mj485-fill-2" offset="100%" stop-color="rgb(89,56,33)"/></linearGradient></defs><g id="erAuY6a2mj42_to" transform="translate(376.211903,353.693573)"><path id="erAuY6a2mj42" d="M224.346176,541.677319C33.696176,646.167319,193.036176,522.607319,112.446176,449.987319C-9.023824,340.557319,125.306176,-9.222681,278.326176,77.557319C462.566176,181.937319,748.236176,59.857319,752.976176,222.397319C756.166176,331.787319,648.436176,283.727319,681.976176,471.047319C746.296176,830.057319,313.096176,493.037319,224.346176,541.677319Z" transform="translate(-376.211903,-353.693573)" opacity="0.13" fill="url(#erAuY6a2mj42-fill)" stroke="none" stroke-width="1"/></g><path id="erAuY6a2mj43" d="M132.87,367.5C132.87,500.05,240.32,607.5,372.87,607.5C479,607.51,569.08,538.58,600.73,443C510.12,380.81,317.13,248.62,218.9,183.38C164.314972,228.940841,132.795034,296.399298,132.87,367.5Z" fill="rgb(247,170,0)" stroke="none" stroke-width="1"/><path id="erAuY6a2mj44" d="M408.79,508.73C410.52,509.38,462.9,543.61,464.93,554.39C468.42,573.04,454.32,590.39,445,594.13C435.68,597.87,408.79,508.73,408.79,508.73Z" fill="rgb(12,13,245)" stroke="none" stroke-width="1"/><g id="erAuY6a2mj45" clip-path="url(#erAuY6a2mj46)"><clipPath id="erAuY6a2mj46"><path id="erAuY6a2mj47" d="M132.87,367.5C132.87,500.05,240.32,607.5,372.87,607.5C479,607.51,569.08,538.58,600.73,443C510.12,380.81,317.13,248.62,218.9,183.38C164.314972,228.940841,132.795034,296.399298,132.87,367.5Z" fill="rgb(247,170,0)" stroke="none" stroke-width="1"/></clipPath><g id="erAuY6a2mj48"><path id="erAuY6a2mj49" d="M636.91,272.74C636.91,272.74,663.46,249.61,667.14,244.62C670.82,239.63,690.42,200.18,695.73,195.2C695.73,195.2,695.32,186.13,677.35,205.63C677.35,205.63,665.09,220.63,663.46,214.69C661.83,208.75,656.92,164.36,656.11,156.69C655.64,152.26,640.18,160.32,637.32,185.69C634.46,211.06,637.73,221.52,636.09,230.13C634.45,238.74,638.22,251.44,635.09,254.62C631.96,257.8,636.91,272.74,636.91,272.74Z" fill="rgb(122,83,52)" stroke="none" stroke-width="1"/><g id="erAuY6a2mj410" clip-path="url(#erAuY6a2mj413)"><g id="erAuY6a2mj411"><path id="erAuY6a2mj412" d="M657.48,147.65C657.48,147.65,647.98,173.65,651.7,195.13C655.42,216.61,657.89,231.04,664.91,228.57C671.93,226.1,669.46,217.03,681.42,205.12C693.38,193.21,696.28,191.96,697.52,177.79C698.76,163.62,657.48,147.65,657.48,147.65Z" opacity="0.3" fill="url(#erAuY6a2mj412-fill)" stroke="none" stroke-width="1"/></g><clipPath id="erAuY6a2mj413"><path id="erAuY6a2mj414" d="M636.91,272.74C636.91,272.74,663.46,249.61,667.14,244.62C670.82,239.63,690.42,200.18,695.73,195.2C695.73,195.2,695.32,186.13,677.35,205.63C677.35,205.63,665.09,220.63,663.46,214.69C661.83,208.75,656.92,164.36,656.11,156.69C655.64,152.26,640.18,160.32,637.32,185.69C634.46,211.06,637.73,221.52,636.09,230.13C634.45,238.74,638.22,251.44,635.09,254.62C631.96,257.8,636.91,272.74,636.91,272.74Z" fill="rgb(122,83,52)" stroke="none" stroke-width="1"/></clipPath></g><path id="erAuY6a2mj415" d="M393.55,452.17C395.2,451.62,421.07,446.12,430.98,435.66C440.89,425.2,455.2,421.21,464.55,412.47C473.9,403.73,501.43,382.82,511.34,377.32C521.25,371.82,547.67,354.68,555.34,345.08C563.01,335.48,572.41,330.53,579.01,323.93C585.61,317.33,646.16,268.33,646.16,268.33C646.16,268.33,639,242.46,633,244.66C627,246.86,583.46,279.89,574.66,285.4C565.86,290.91,503.08,322.27,491,338.79C478.92,355.31,423.3,388.87,416.7,387.79C410.1,386.71,407.89,345.1,407.89,345.1L304.93,415.7L309.72,428Z" fill="rgb(12,13,245)" stroke="none" stroke-width="1"/><path id="erAuY6a2mj416" d="M394.74,226.15C394.74,226.15,407.79,227.96,412.23,234.66C416.67,241.36,407.92,262.55,410.53,267.28C413.14,272.01,395.46,272.74,395.46,272.74C395.46,272.74,381.06,245.62,394.74,226.15Z" fill="rgb(20,18,19)" stroke="none" stroke-width="1"/><path id="erAuY6a2mj417" d="M402.43,228.11L455.75,206.11C455.75,206.11,471.14,198.95,479.68,222.62C488.22,246.29,505.83,269.4,496.48,276.01C487.13,282.62,461.25,293.62,456.85,292.01C452.45,290.4,432.77,304.07,432.77,304.07L428.77,304.07L423.86,297.77L401.22,254.6Z" fill="rgb(20,18,19)" stroke="none" stroke-width="1"/><path id="erAuY6a2mj418" d="M388.6,227.6C389.15,225.95,427.6,296.85,432.77,309.06C438.68,323.06,441.59,356.95,434.35,359.63C418.04,365.63,414.84,360.13,410.51,363.99C406.18,367.85,407.25,383.86,410.41,398.77C410.63,399.82,400.41,423.47,393.89,406.82C376.11,361.17,356.64,243.48,361.07,234.21C367.13,221.55,388.6,227.6,388.6,227.6Z" fill="rgb(122,83,52)" stroke="none" stroke-width="1"/><g id="erAuY6a2mj419" clip-path="url(#erAuY6a2mj422)"><g id="erAuY6a2mj420"><path id="erAuY6a2mj421" d="M391.14,228.11C391.14,228.11,397.75,255.76,391.14,268.11C384.53,280.46,389.19,316,398.63,321.78C408.07,327.56,406.54,351.91,414.12,352.78C421.7,353.65,419.42,357.98,433.12,355.18C446.82,352.38,433.49,366.82,433.49,366.82L386.3,380L362.24,273.51Z" opacity="0.29" fill="url(#erAuY6a2mj421-fill)" stroke="none" stroke-width="1"/></g><clipPath id="erAuY6a2mj422"><path id="erAuY6a2mj423" d="M388.6,227.6C389.15,225.95,427.6,296.85,432.77,309.06C438.68,323.06,441.59,356.95,434.35,359.63C418.04,365.63,414.84,360.13,410.51,363.99C406.18,367.85,407.25,383.86,410.41,398.77C410.63,399.82,400.41,423.47,393.89,406.82C376.11,361.17,356.64,243.48,361.07,234.21C367.13,221.55,388.6,227.6,388.6,227.6Z" fill="rgb(122,83,52)" stroke="none" stroke-width="1"/></clipPath></g><path id="erAuY6a2mj424" d="M393.86,236.49C393.52,237.63,376.49,290.35,389.15,315.67C401.81,340.99,402.91,404.84,413.91,439.51C424.91,474.18,431.22,585.51,456.54,602.05C481.86,618.59,445.84,631.05,438.68,599.13C431.52,567.21,414.61,486.85,402.43,442.27C390.25,397.69,358.87,409.9,345.66,428.27C332.45,446.64,268.6,444.46,293.37,501.15C318.14,557.84,298.37,594.15,279.61,607.38C260.85,620.61,185.49,642.78,211.91,581.32C238.33,519.86,190.45,464.27,232.28,425.74C274.11,387.21,291.17,399.87,291.17,370.74C291.17,341.61,272.46,349.82,267.5,317.9C262.54,285.98,251,258.43,278,244.11C305,229.79,340.2,200.11,367.17,211.64C394.14,223.17,398.09,222.28,393.86,236.49Z" fill="rgb(20,18,19)" stroke="none" stroke-width="1"/><path id="erAuY6a2mj425" d="M455.14,613.11C439.14,505.11,420.2,447.8,409.19,438.45C398.18,429.1,357.43,377.5,332.11,412.73C306.79,447.96,284.8,460.46,284.8,477C284.8,493.54,307.37,605.79,309.57,612.4C311.77,619.01,455.14,613.11,455.14,613.11Z" fill="rgb(12,13,245)" stroke="none" stroke-width="1"/><path id="erAuY6a2mj426" d="M314.84,480.79C314.84,480.79,422.25,532.53,454.72,533.63C487.19,534.73,564.18,549.05,573.54,540.79C582.9,532.53,585.1,533.08,589.54,515.47C593.98,497.86,594.54,484.92,597.24,437.04C599.94,389.16,569.17,418.6,569.17,418.6C569.17,418.6,559.81,447.15,555.96,454.37C549.29,466.87,544.13,487.67,535.32,488.23C526.51,488.79,480,480.24,465.1,472C450.2,463.76,372.79,385.82,347.86,406.83C322.93,427.84,314.84,480.79,314.84,480.79Z" fill="rgb(12,13,245)" stroke="none" stroke-width="1"/><path id="erAuY6a2mj427" d="M574.23,431.33C574.23,431.33,557.36,433.26,552.06,427.48C546.76,421.7,541.94,406.27,538.57,396.15C535.2,386.03,554.47,372.54,556.4,372.54C558.33,372.54,556.4,362.42,567.48,366.75C578.56,371.08,578.57,363.86,583.39,370.61C588.21,377.36,610.39,403.86,599.29,419.77C588.19,435.68,574.23,431.33,574.23,431.33Z" fill="rgb(122,83,52)" stroke="none" stroke-width="1"/><path id="erAuY6a2mj428" d="M267.5,317.87C267.5,317.87,279.61,325.58,291.17,327.78C302.73,329.98,316.49,345.39,314.29,350.9C312.09,356.41,296.91,372.45,291,366.35C285.09,360.25,293.66,367.35,279.6,348.35C262.9,325.74,267.5,317.87,267.5,317.87Z" fill="rgb(30,29,30)" stroke="none" stroke-width="1"/><path id="erAuY6a2mj429" d="M408.41,235.23C408.41,235.23,417.22,229.73,421.07,235.23C424.92,240.73,430.43,251.23,428.23,257.23C426.03,263.23,410.53,266.08,410.53,266.08C410.53,266.08,405.11,240.74,408.41,235.23Z" fill="rgb(30,29,30)" stroke="none" stroke-width="1"/><path id="erAuY6a2mj430" d="M422.25,284.22C422.25,284.22,425.74,296.62,432.94,295.37C440.14,294.12,446.46,290.28,448.8,286.97C451.14,283.66,440.28,266.1,440.28,266.1Z" fill="rgb(30,29,30)" stroke="none" stroke-width="1"/><path id="erAuY6a2mj431" d="M442.81,211.47C446.28119,208.921414,450.505688,207.608299,454.81,207.74C457.004723,208.109669,459.123266,208.839502,461.08,209.9C462.998165,210.95376,464.750365,212.284758,466.28,213.85C469.199163,216.927737,471.530852,220.513388,473.16,224.43C474.01,226.32,474.71,228.08,475.54,229.9L477.99,235.33C481.3,242.57,484.73,249.9,486.99,257.77C487.25,258.77,487.57,259.77,487.79,260.77L488.45,263.77C488.829254,265.809192,489.083064,267.869728,489.21,269.94C488.92179,274.085031,487.9063,278.146991,486.21,281.94C486.378653,278.000035,486.042592,274.05468,485.21,270.2C485.01,269.26,485.16,268.29,484.95,267.35L484.51,264.51L483.89,261.69C483.69,260.75,483.38,259.82,483.14,258.89C480.99,251.43,477.64,244.25,474.34,237L471.86,231.54C471.04,229.74,470.26,227.79,469.48,226.05C468.046367,222.584265,465.992779,219.408998,463.42,216.68C460.956878,214.064647,457.703976,212.329298,454.16,211.74C450.474223,210.603417,446.545653,210.509962,442.81,211.47Z" fill="url(#erAuY6a2mj431-fill)" stroke="none" stroke-width="1"/><g id="erAuY6a2mj432" opacity="0.37"><path id="erAuY6a2mj433" d="M416.66,232.79C418.041288,231.88747,419.576853,231.246804,421.19,230.9C422.020641,230.716208,422.877444,230.682342,423.72,230.8C424.610843,230.929887,425.448395,231.303671,426.14,231.88C426.729123,232.492292,427.255109,233.162337,427.71,233.88L429.1,235.88L431.82,239.93Q437.21,248.08,442.29,256.39C445.66,261.96,448.98,267.56,451.9,273.39C452.62,274.85,453.31,276.33,453.9,277.86C454.579704,279.393367,455.018218,281.022616,455.2,282.69C455.284409,283.544066,455.223549,284.40626,455.02,285.24C454.836627,286.129635,454.326383,286.918195,453.59,287.45C452.831688,287.900007,451.928867,288.039729,451.07,287.84C450.259877,287.676107,449.482623,287.378723,448.77,286.96C449.515325,287.271406,450.304957,287.463752,451.11,287.53C451.867328,287.625601,452.632617,287.428914,453.25,286.98C453.788018,286.482089,454.119848,285.800589,454.18,285.07C454.245079,284.301375,454.245079,283.528625,454.18,282.76C454.0214,281.193884,453.609364,279.663946,452.96,278.23C452.36,276.74,451.68,275.28,450.96,273.83C448.07,268.04,444.76,262.45,441.4,256.9C438.04,251.35,434.53,245.9,430.95,240.48L428.23,236.48L426.85,234.48C426.41333,233.836603,425.935674,233.221997,425.42,232.64C424.277991,231.617286,422.729933,231.174983,421.22,231.44C419.636765,231.639343,418.096588,232.095317,416.66,232.79Z" fill="url(#erAuY6a2mj433-fill)" stroke="none" stroke-width="1"/></g><path id="erAuY6a2mj434" d="M437.05,213.84C441.383213,213.546434,445.735441,213.951607,449.94,215.04C453.03,215.87,456.15,217.16,458.18,219.68C462.18,224.63,464.18,231.02,466.68,236.79C469.06,242.25,471.68,247.62,473.5,253.3C475.5,259.77,476.4,264.21,478.11,269.64C478.78,271.79,480.61,284.55,477.7,285.96C477.7,285.96,464.9,292.23,461.49,291.67C461.49,291.67,466.96,291.73,463.87,277.48C461.86522,268.05582,459.236089,258.775354,456,249.7C453.08,241.7,449.94,232.44,442.76,227.16C437.58,223.35,426.44,218.16,419.85,220.91Z" opacity="0.21" fill="url(#erAuY6a2mj434-fill)" stroke="none" stroke-width="1"/><path id="erAuY6a2mj435" d="M376.42,319.07L404.57,301.83C404.57,301.83,416.57,293.62,419.46,290.14C422.35,286.66,409.81,283.53,409.4,283.19C408.99,282.85,376.4,308.19,376.4,308.19Z" fill="url(#erAuY6a2mj435-fill)" stroke="none" stroke-width="1"/><path id="erAuY6a2mj436" d="M298.28,330.53C298.28,330.53,337.41,311.82,345.66,307.41C353.91,303,432.08,246.6,433.73,244.53C435.38,242.46,448.04,263.93,447.49,267.78C446.94,271.63,420.49,287.6,413.91,293.1C407.33,298.6,373.71,320.1,372.91,323.37C372.11,326.64,361.78,337.14,355.91,337.14C350.04,337.14,315.91,348.08,314.29,350.9C312.67,353.72,298.28,330.53,298.28,330.53Z" fill="rgb(12,13,245)" stroke="none" stroke-width="1"/><g id="erAuY6a2mj437" opacity="0.22"><path id="erAuY6a2mj438" d="M544,392.93C546.735062,393.883514,549.407064,395.009095,552,396.3C554.5915,397.570856,557.105858,398.993321,559.53,400.56C561.93,402.18,564.21,403.96,566.43,405.8C568.646145,407.657765,570.715622,409.68378,572.62,411.86L572.19,412.21C570.28,410.07,568.48,407.85,566.76,405.56C565.04,403.27,563.37,400.93,561.85,398.49C560.308252,396.054517,558.970368,393.495813,557.85,390.84C557.296162,389.50346,556.870908,388.117198,556.58,386.7C556.246263,385.274609,556.322533,383.783888,556.8,382.4L556.9,382.4C556.585982,383.773779,556.644672,385.206507,557.07,386.55C557.455296,387.904182,557.957172,389.222442,558.57,390.49C559.793068,393.047083,561.186192,395.519293,562.74,397.89C565.74,402.69,569.12,407.3,572.59,411.81L572.16,412.16C570.421769,409.87591,568.406312,407.816785,566.16,406.03C563.900512,404.264277,561.521491,402.657102,559.04,401.22C556.59,399.74,554.11,398.3,551.59,396.94C549.07,395.58,546.52,394.25,543.94,392.94Z" fill="url(#erAuY6a2mj438-fill)" stroke="none" stroke-width="1"/></g><g id="erAuY6a2mj439" opacity="0.22"><path id="erAuY6a2mj440" d="M561.6,376.17C563.545026,378.300045,565.348864,380.554843,567,382.92C568.682281,385.266634,570.218519,387.714597,571.6,390.25C572.927455,392.817058,574.122358,395.450518,575.18,398.14C576.249408,400.828504,577.105388,403.597066,577.74,406.42L577.2,406.52C576.54,403.73,576.01,400.92,575.58,398.08C575.15,395.24,574.8,392.4,574.58,389.54C574.393302,386.664465,574.436774,383.778607,574.71,380.91C574.862189,379.469412,575.150135,378.046423,575.57,376.66C575.956091,375.250103,576.732566,373.977932,577.81,372.99L577.88,373.06C576.944732,374.118109,576.31552,375.411105,576.06,376.8C575.749183,378.174175,575.558465,379.572777,575.49,380.98C575.358425,383.810465,575.411872,386.646502,575.65,389.47C576.03,395.13,576.78,400.79,577.65,406.41L577.1,406.51C576.67276,403.676318,575.889919,400.907815,574.77,398.27C573.612806,395.644583,572.276316,393.10191,570.77,390.66Q568.61,386.95,566.26,383.35C564.69,380.95,563.08,378.57,561.41,376.23Z" fill="url(#erAuY6a2mj440-fill)" stroke="none" stroke-width="1"/></g></g></g><g id="erAuY6a2mj441_tr" transform="translate(139.32,434.420013) rotate(0)"><polygon id="erAuY6a2mj441" points="139.32,415.04 162.3,415.38 150.52,434.76 138.74,454.14 127.54,434.43 116.34,414.7 139.32,415.04" transform="translate(-139.32,-434.420013)" fill="rgb(38,241,233)" stroke="none" stroke-width="1"/></g><path id="erAuY6a2mj442" d="M368.21268,113.94866C311.895385,113.859162,257.355481,133.659981,214.21268,169.85866C312.44268,235.09866,505.44268,367.28866,596.07268,429.47866C604.136681,405.114243,608.235536,379.612884,608.21268,353.94866C608.21268,221.39866,500.76268,113.94866,368.21268,113.94866Z" fill="url(#erAuY6a2mj442-fill)" stroke="none" stroke-width="1"/><path id="erAuY6a2mj443" d="M466.69,198.88L625.88,36.640196L720,234.48L491.37,253.25L466.69,198.88Z" opacity="0.42" fill="url(#erAuY6a2mj443-fill)" stroke="none" stroke-width="1"/><g id="erAuY6a2mj444" clip-path="url(#erAuY6a2mj445)"><clipPath id="erAuY6a2mj445"><path id="erAuY6a2mj446" d="M365.77,115.17C309.452705,115.080502,254.912801,134.881321,211.77,171.08C310,236.32,503,368.51,593.63,430.7C601.694001,406.335583,605.792856,380.834224,605.77,355.17C605.77,222.62,498.32,115.17,365.77,115.17Z" fill="url(#erAuY6a2mj446-fill)" stroke="none" stroke-width="1"/></clipPath><g id="erAuY6a2mj447"><path id="erAuY6a2mj448" d="M629.81,260.41C629.81,260.41,656.36,237.28,660.04,232.29C663.72,227.3,683.32,187.85,688.63,182.87C688.63,182.87,688.22,173.8,670.25,193.29C670.25,193.29,657.99,208.29,656.36,202.36C654.73,196.43,649.82,152.03,649.01,144.36C648.54,139.93,633.08,147.99,630.22,173.36C627.36,198.73,630.63,209.19,628.99,217.8C627.35,226.41,631.12,239.11,627.99,242.29C624.86,245.47,629.81,260.41,629.81,260.41Z" fill="rgb(122,83,52)" stroke="none" stroke-width="1"/><g id="erAuY6a2mj449" clip-path="url(#erAuY6a2mj450)"><clipPath id="erAuY6a2mj450"><path id="erAuY6a2mj451" d="M629.81,260.41C629.81,260.41,656.36,237.28,660.04,232.29C663.72,227.3,683.32,187.85,688.63,182.87C688.63,182.87,688.22,173.8,670.25,193.29C670.25,193.29,657.99,208.29,656.36,202.36C654.73,196.43,649.82,152.03,649.01,144.36C648.54,139.93,633.08,147.99,630.22,173.36C627.36,198.73,630.63,209.19,628.99,217.8C627.35,226.41,631.12,239.11,627.99,242.29C624.86,245.47,629.81,260.41,629.81,260.41Z" fill="rgb(122,83,52)" stroke="none" stroke-width="1"/></clipPath><g id="erAuY6a2mj452"><path id="erAuY6a2mj453" d="M650.38,135.32C650.38,135.32,640.88,161.32,644.6,182.8C648.32,204.28,650.79,218.71,657.81,216.23C664.83,213.75,662.36,204.7,674.32,192.79C686.28,180.88,689.18,179.63,690.42,165.46C691.66,151.29,650.38,135.32,650.38,135.32Z" opacity="0.3" fill="url(#erAuY6a2mj453-fill)" stroke="none" stroke-width="1"/></g></g><path id="erAuY6a2mj454" d="M386.45,439.84C388.1,439.29,413.97,433.84,423.88,423.33C433.79,412.82,448.1,408.88,457.45,400.14C466.8,391.4,494.33,370.49,504.24,364.99C514.15,359.49,540.57,342.35,548.24,332.75C555.91,323.15,565.31,318.2,571.91,311.59C578.51,304.98,639.09,256,639.09,256C639.09,256,631.94,230.13,625.88,232.33C619.82,234.53,576.34,267.56,567.54,273.07C558.74,278.58,496,309.94,483.87,326.46C471.74,342.98,416.17,376.54,409.57,375.46C402.97,374.38,400.76,332.77,400.76,332.77L297.83,403.37L302.62,415.62Z" fill="rgb(12,13,245)" stroke="none" stroke-width="1"/><path id="erAuY6a2mj455" d="M387.64,213.82C387.64,213.82,400.69,215.63,405.13,222.33C409.57,229.03,400.82,250.22,403.43,254.95C406.04,259.68,388.36,260.41,388.36,260.41C388.36,260.41,374,233.29,387.64,213.82Z" fill="rgb(20,18,19)" stroke="none" stroke-width="1"/><path id="erAuY6a2mj456" d="M395.33,215.78L448.65,193.78C448.65,193.78,464.04,186.62,472.58,210.29C481.12,233.96,498.73,257.07,489.38,263.68C480.03,270.29,454.15,281.29,449.75,279.68C445.35,278.07,425.67,291.74,425.67,291.74L421.67,291.74L416.76,285.44L394.12,242.27Z" fill="rgb(20,18,19)" stroke="none" stroke-width="1"/><path id="erAuY6a2mj457" d="M381.5,215.27C382.05,213.62,420.5,284.52,425.67,296.73C431.58,310.73,434.49,344.62,427.25,347.3C410.94,353.3,407.74,347.8,403.41,351.66C399.08,355.52,400.15,371.53,403.31,386.44C403.53,387.49,393.31,411.14,386.79,394.49C369,348.83,349.54,231.15,354,221.88C360,209.22,381.5,215.27,381.5,215.27Z" fill="rgb(122,83,52)" stroke="none" stroke-width="1"/><g id="erAuY6a2mj458" clip-path="url(#erAuY6a2mj459)"><clipPath id="erAuY6a2mj459"><path id="erAuY6a2mj460" d="M381.5,215.27C382.05,213.62,420.5,284.52,425.67,296.73C431.58,310.73,434.49,344.62,427.25,347.3C410.94,353.3,407.74,347.8,403.41,351.66C399.08,355.52,400.15,371.53,403.31,386.44C403.53,387.49,393.31,411.14,386.79,394.49C369,348.83,349.54,231.15,354,221.88C360,209.22,381.5,215.27,381.5,215.27Z" fill="rgb(122,83,52)" stroke="none" stroke-width="1"/></clipPath><g id="erAuY6a2mj461"><path id="erAuY6a2mj462" d="M384,215.78C384,215.78,390.61,243.43,384,255.78C377.39,268.13,382,303.67,391.49,309.45C400.98,315.23,399.4,339.58,406.98,340.45C414.56,341.32,412.28,345.65,425.98,342.84C439.68,340.03,426.35,354.49,426.35,354.49L379.2,367.69L355.15,261.18Z" opacity="0.29" fill="url(#erAuY6a2mj462-fill)" stroke="none" stroke-width="1"/></g></g><path id="erAuY6a2mj463" d="M386.76,224.16C386.42,225.3,369.39,278.02,382.05,303.34C394.71,328.66,395.81,392.51,406.82,427.18C417.83,461.85,440.39,575.8,465.71,592.31C491.03,608.82,438.71,618.73,431.58,586.8C424.45,554.87,407.51,474.52,395.33,429.93C383.15,385.34,351.77,397.57,338.56,415.93C325.35,434.29,261.5,432.12,286.27,488.81C311.04,545.5,291.27,581.81,272.51,595.04C253.75,608.27,178.39,630.44,204.81,568.98C231.23,507.52,183.35,451.98,225.18,413.4C267.01,374.82,284.07,387.53,284.07,358.4C284.07,329.27,265.36,337.48,260.4,305.56C255.44,273.64,243.89,246.12,270.86,231.8C297.83,217.48,333.06,187.8,360.03,199.33C387,210.86,391,210,386.76,224.16Z" fill="rgb(20,18,19)" stroke="none" stroke-width="1"/><path id="erAuY6a2mj464" d="M429,575C428.66,573.43,404.1,419,393.09,409.6C382.08,400.2,355.09,378.78,329.8,414C304.51,449.22,268.7,431.62,268.7,448.13C268.7,464.64,291.27,576.93,293.47,583.53C295.67,590.13,429,575,429,575Z" fill="rgb(12,13,245)" stroke="none" stroke-width="1"/><path id="erAuY6a2mj465" d="M307.74,468.46C307.74,468.46,415.15,520.2,447.62,521.3C480.09,522.4,557.08,536.72,566.44,528.46C575.8,520.2,578,520.75,582.44,503.14C586.88,485.53,587.44,472.59,590.14,424.71C592.84,376.83,562,406.27,562,406.27C562,406.27,552.64,434.82,548.79,442.04C542.12,454.54,536.96,475.34,528.15,475.89C519.34,476.44,472.84,467.89,457.97,459.66C443.1,451.43,365.66,373.48,340.73,394.49C315.8,415.5,307.74,468.46,307.74,468.46Z" fill="rgb(12,13,245)" stroke="none" stroke-width="1"/><path id="erAuY6a2mj466" d="M567.13,419C567.13,419,550.26,420.93,544.96,415.15C539.66,409.37,534.84,393.94,531.47,383.82C528.1,373.7,547.37,360.21,549.3,360.21C551.23,360.21,549.3,350.09,560.38,354.42C571.46,358.75,571.47,351.53,576.29,358.28C581.11,365.03,603.29,391.53,592.19,407.44C581.09,423.35,567.13,419,567.13,419Z" fill="rgb(122,83,52)" stroke="none" stroke-width="1"/><path id="erAuY6a2mj467" d="M260.4,305.54C260.4,305.54,272.51,313.25,284.07,315.45C295.63,317.65,309.39,333.06,307.19,338.57C304.99,344.08,289.81,360.12,283.91,354C278.01,347.88,286.57,355,272.51,336C255.8,313.41,260.4,305.54,260.4,305.54Z" fill="rgb(30,29,30)" stroke="none" stroke-width="1"/><path id="erAuY6a2mj468" d="M401.31,222.9C401.31,222.9,410.12,217.4,413.97,222.9C417.82,228.4,423.33,238.9,421.13,244.9C418.93,250.9,403.43,253.75,403.43,253.75C403.43,253.75,398,228.41,401.31,222.9Z" fill="rgb(30,29,30)" stroke="none" stroke-width="1"/><path id="erAuY6a2mj469" d="M415.15,271.89C415.15,271.89,418.64,284.29,425.84,283.04C433.04,281.79,439.36,277.95,441.7,274.64C444.04,271.33,433.18,253.77,433.18,253.77Z" fill="rgb(30,29,30)" stroke="none" stroke-width="1"/><path id="erAuY6a2mj470" d="M435.71,199.14C439.18119,196.591414,443.405688,195.278299,447.71,195.41C449.904723,195.779669,452.023266,196.509502,453.98,197.57C455.90146,198.639065,457.653838,199.987048,459.18,201.57C462.072651,204.637718,464.383551,208.20572,466,212.1C466.85,213.99,467.55,215.75,468.38,217.57L470.83,223C474.14,230.24,477.57,237.57,479.83,245.44C480.1,246.44,480.41,247.44,480.63,248.44L481.29,251.44C481.669254,253.479192,481.923064,255.539728,482.05,257.61C481.76179,261.755031,480.7463,265.816991,479.05,269.61C479.218653,265.670035,478.882592,261.72468,478.05,257.87C477.85,256.93,478,255.96,477.79,255.02L477.35,252.18L476.73,249.36C476.53,248.42,476.22,247.49,475.98,246.56C473.83,239.1,470.48,231.92,467.18,224.67L464.7,219.21C463.88,217.41,463.1,215.46,462.32,213.72C460.886367,210.254265,458.832779,207.078998,456.26,204.35C453.800993,201.72927,450.546151,199.992886,447,199.41C443.332911,198.284663,439.426691,198.191246,435.71,199.14Z" fill="url(#erAuY6a2mj470-fill)" stroke="none" stroke-width="1"/><g id="erAuY6a2mj471" opacity="0.37"><path id="erAuY6a2mj472" d="M409.56,220.46C410.941288,219.55747,412.476853,218.916804,414.09,218.57C414.920641,218.386208,415.777444,218.352342,416.62,218.47C417.510843,218.599887,418.348395,218.973671,419.04,219.55C419.629123,220.162292,420.155109,220.832337,420.61,221.55L422,223.55L424.72,227.55Q430.1,235.7,435.19,244.01C438.56,249.58,441.88,255.18,444.8,261.01C445.52,262.47,446.21,263.95,446.8,265.48C447.483867,267.011891,447.92256,268.641803,448.1,270.31C448.184024,271.164072,448.123167,272.026201,447.92,272.86C447.736627,273.749635,447.226383,274.538195,446.49,275.07C445.731688,275.520007,444.828867,275.659729,443.97,275.46C443.159877,275.296107,442.382623,274.998723,441.67,274.58C442.415325,274.891406,443.204957,275.083752,444.01,275.15C444.767328,275.245601,445.532617,275.048914,446.15,274.6C446.688018,274.102089,447.019848,273.420589,447.08,272.69C447.145079,271.921375,447.145079,271.148625,447.08,270.38C446.9214,268.813884,446.509364,267.283946,445.86,265.85C445.26,264.36,444.58,262.85,443.86,261.45C440.97,255.66,437.66,250.07,434.3,244.52C430.94,238.97,427.43,233.52,423.85,228.1L421.13,224.1L419.75,222.1C419.31333,221.456603,418.835674,220.841997,418.32,220.26C417.177991,219.237286,415.629933,218.794983,414.12,219.06C412.533878,219.275118,410.993576,219.748018,409.56,220.46Z" fill="url(#erAuY6a2mj472-fill)" stroke="none" stroke-width="1"/></g><path id="erAuY6a2mj473" d="M430,201.51C434.333276,201.211349,438.686318,201.616597,442.89,202.71C445.98,203.54,449.1,204.83,451.13,207.35C455.13,212.35,457.13,218.69,459.63,224.46C462.01,229.92,464.63,235.29,466.45,240.97C468.45,247.43,469.35,251.88,471.06,257.31C471.73,259.46,473.56,272.22,470.65,273.63C470.65,273.63,457.85,279.9,454.44,279.34C454.44,279.34,459.91,279.4,456.82,265.15C454.828304,255.726764,452.21254,246.446313,448.99,237.37C446.07,229.32,442.93,220.11,435.75,214.83C430.57,211.02,419.43,205.83,412.84,208.58Z" opacity="0.21" fill="url(#erAuY6a2mj473-fill)" stroke="none" stroke-width="1"/><path id="erAuY6a2mj474" d="M369.32,306.74L397.47,289.5C397.47,289.5,409.47,281.29,412.36,277.81C415.25,274.33,402.71,271.19,402.3,270.81C401.89,270.43,369.3,295.81,369.3,295.81Z" fill="url(#erAuY6a2mj474-fill)" stroke="none" stroke-width="1"/><path id="erAuY6a2mj475" d="M291.18,318.2C291.18,318.2,330.31,299.49,338.56,295.08C346.81,290.67,425,234.27,426.63,232.2C428.26,230.13,440.94,251.6,440.39,255.45C439.84,259.3,413.39,275.27,406.82,280.77C400.25,286.27,366.61,307.77,365.82,311.04C365.03,314.31,354.69,324.81,348.82,324.81C342.95,324.81,308.82,335.75,307.2,338.57C305.58,341.39,291.18,318.2,291.18,318.2Z" fill="rgb(12,13,245)" stroke="none" stroke-width="1"/><g id="erAuY6a2mj476" opacity="0.22"><path id="erAuY6a2mj477" d="M536.92,380.6C539.655062,381.553514,542.327064,382.679095,544.92,383.97C547.5115,385.240856,550.025858,386.663321,552.45,388.23C554.85,389.85,557.13,391.63,559.35,393.47C561.566145,395.327765,563.635622,397.35378,565.54,399.53L565.11,399.88C563.2,397.74,561.4,395.52,559.68,393.23C557.96,390.94,556.29,388.6,554.77,386.16C553.228252,383.724517,551.890368,381.165813,550.77,378.51C550.216162,377.17346,549.790908,375.787198,549.5,374.37C549.166263,372.944609,549.242533,371.453888,549.72,370.07L549.82,370.07C549.505982,371.443779,549.564672,372.876507,549.99,374.22C550.375296,375.574182,550.877172,376.892442,551.49,378.16C552.713068,380.717083,554.106192,383.189293,555.66,385.56C558.66,390.36,562.04,394.97,565.51,399.48L565.08,399.83C563.341769,397.54591,561.326312,395.486785,559.08,393.7C556.820512,391.934277,554.441491,390.327102,551.96,388.89C549.51,387.41,547.04,385.97,544.51,384.61C541.98,383.25,539.44,381.92,536.86,380.61Z" fill="url(#erAuY6a2mj477-fill)" stroke="none" stroke-width="1"/></g><g id="erAuY6a2mj478" opacity="0.22"><path id="erAuY6a2mj479" d="M554.5,363.84C556.445026,365.970045,558.248864,368.224843,559.9,370.59C561.582281,372.936634,563.118519,375.384597,564.5,377.92C565.827455,380.487058,567.022358,383.120518,568.08,385.81C569.149408,388.498504,570.005388,391.267066,570.64,394.09L570.1,394.19C569.44,391.4,568.91,388.59,568.48,385.75C568.05,382.91,567.7,380.07,567.48,377.21C567.291653,374.334319,567.338475,371.448059,567.62,368.58C567.764224,367.139029,568.04891,365.715598,568.47,364.33C568.856091,362.920103,569.632566,361.647932,570.71,360.66L570.78,360.73C569.844732,361.788109,569.21552,363.081105,568.96,364.47C568.649183,365.844175,568.458465,367.242777,568.39,368.65C568.258425,371.480465,568.311872,374.316502,568.55,377.14C568.93,382.8,569.68,388.46,570.55,394.08L570,394.18C569.573701,391.346115,568.790827,388.577496,567.67,385.94C566.512806,383.314583,565.176316,380.77191,563.67,378.33Q561.51,374.63,559.16,371.02C557.59,368.62,555.98,366.24,554.31,363.9Z" fill="url(#erAuY6a2mj479-fill)" stroke="none" stroke-width="1"/></g></g></g><path id="erAuY6a2mj480" d="M646.59,245.25C646.59,245.25,673.15,222.12,676.82,217.13C680.49,212.14,700.11,172.69,705.42,167.71C705.42,167.71,705.01,158.64,687.03,178.14C687.03,178.14,674.78,193.14,673.15,187.2C671.52,181.26,666.61,136.87,665.79,129.2C665.32,124.77,649.86,132.83,647,158.2C644.14,183.57,647.41,194.03,645.78,202.64C644.15,211.25,647.91,223.95,644.78,227.13C641.65,230.31,646.59,245.25,646.59,245.25Z" fill="rgb(122,83,52)" stroke="none" stroke-width="1"/><g id="erAuY6a2mj481" clip-path="url(#erAuY6a2mj482)"><clipPath id="erAuY6a2mj482"><path id="erAuY6a2mj483" d="M646.59,245.25C646.59,245.25,673.15,222.12,676.82,217.13C680.49,212.14,700.11,172.69,705.42,167.71C705.42,167.71,705.01,158.64,687.03,178.14C687.03,178.14,674.78,193.14,673.15,187.2C671.52,181.26,666.61,136.87,665.79,129.2C665.32,124.77,649.86,132.83,647,158.2C644.14,183.57,647.41,194.03,645.78,202.64C644.15,211.25,647.91,223.95,644.78,227.13C641.65,230.31,646.59,245.25,646.59,245.25Z" fill="rgb(122,83,52)" stroke="none" stroke-width="1"/></clipPath><g id="erAuY6a2mj484"><path id="erAuY6a2mj485" d="M667.16,120.16C667.16,120.16,657.67,146.16,661.38,167.64C665.09,189.12,667.57,203.55,674.59,201.08C681.61,198.61,679.15,189.54,691.1,177.63C703.05,165.72,706,164.47,707.2,150.3C708.4,136.13,667.16,120.16,667.16,120.16Z" opacity="0.3" fill="url(#erAuY6a2mj485-fill)" stroke="none" stroke-width="1"/></g></g><path id="erAuY6a2mj486" d="M521,349.83C530.9,344.32,557.32,327.19,565,317.59C572.68,307.99,582.06,303.04,588.67,296.44C595.28,289.84,655.82,240.84,655.82,240.84C655.82,240.84,648.66,214.97,642.61,217.18C636.56,219.39,593.07,252.4,584.26,257.91C575.45,263.42,512.71,294.78,500.6,311.3C488.49,327.82,511.12,355.33,521,349.83Z" fill="rgb(12,13,245)" stroke="none" stroke-width="1"/><circle id="erAuY6a2mj487" r="1.75" transform="matrix(1 0 0 1 313.2 159.92)" fill="rgb(240,240,240)" stroke="none" stroke-width="1"/><circle id="erAuY6a2mj488" r="1.75" transform="matrix(1 0 0 1 349.08 146.51)" fill="rgb(240,240,240)" stroke="none" stroke-width="1"/><circle id="erAuY6a2mj489" r="1.71" transform="matrix(1 0 0 1 393.21 155)" fill="rgb(247,170,0)" stroke="none" stroke-width="1"/><circle id="erAuY6a2mj490" r="1.75" transform="matrix(1 0 0 1 412.32 185.42)" fill="rgb(240,240,240)" stroke="none" stroke-width="1"/><circle id="erAuY6a2mj491" r="3.39" transform="matrix(1 0 0 1 640.25 119.04)" fill="rgb(108,99,255)" stroke="none" stroke-width="1"/><circle id="erAuY6a2mj492" r="1.98" transform="matrix(1 0 0 1 553.7 125)" fill="rgb(240,240,240)" stroke="none" stroke-width="1"/><circle id="erAuY6a2mj493" r="1.98" transform="matrix(1 0 0 1 689.47 189.1)" fill="rgb(240,240,240)" stroke="none" stroke-width="1"/><circle id="erAuY6a2mj494" r="1.98" transform="matrix(1 0 0 1 681.44 225.75)" fill="rgb(240,240,240)" stroke="none" stroke-width="1"/><circle id="erAuY6a2mj495" r="1.98" transform="matrix(1 0 0 1 512 274.37)" fill="rgb(37,245,233)" stroke="none" stroke-width="1"/><circle id="erAuY6a2mj496" r="1.98" transform="matrix(1 0 0 1 550.19 240.7)" fill="rgb(240,240,240)" stroke="none" stroke-width="1"/></svg>