<svg id="e1IEamW9z6x1" xmlns="http://www.w3.org/2000/svg" xmlns:xlink="http://www.w3.org/1999/xlink" viewBox="0 0 841.89 649.02" shape-rendering="geometricPrecision" text-rendering="geometricPrecision"><style><![CDATA[#e1IEamW9z6x3_tr {animation: e1IEamW9z6x3_tr__tr 8571.428571428572ms linear infinite normal forwards}@keyframes e1IEamW9z6x3_tr__tr { 0% {transform: translate(387.263917px,349.34734px) rotate(0deg);animation-timing-function: cubic-bezier(0.42,0,0.58,1)} 100% {transform: translate(387.263917px,349.34734px) rotate(269.870409deg)}} #e1IEamW9z6x8 {animation: e1IEamW9z6x8_s_w 8571.428571428572ms linear infinite normal forwards}@keyframes e1IEamW9z6x8_s_w { 0% {stroke-width: 7;animation-timing-function: cubic-bezier(0.42,0,0.58,1)} 60% {stroke-width: 7;animation-timing-function: cubic-bezier(0.42,0,0.58,1)} 100% {stroke-width: 7}}]]></style><defs><linearGradient id="e1IEamW9z6x2-fill" x1="416.76" y1="628.51" x2="416.76" y2="53.7" spreadMethod="pad" gradientUnits="userSpaceOnUse" gradientTransform="matrix(1 0 0 1 0 0)"><stop id="e1IEamW9z6x2-fill-0" offset="0%" stop-color="rgba(247,163,26,0)"/><stop id="e1IEamW9z6x2-fill-1" offset="100%" stop-color="rgb(12,13,245)"/></linearGradient><linearGradient id="e1IEamW9z6x3-fill" x1="-229.11" y1="0" x2="229.12" y2="0" spreadMethod="pad" gradientUnits="userSpaceOnUse" gradientTransform="matrix(1 0 0 1 0 0)"><stop id="e1IEamW9z6x3-fill-0" offset="4%" stop-color="rgb(37,245,233)"/><stop id="e1IEamW9z6x3-fill-1" offset="60%" stop-color="rgb(12,13,245)"/><stop id="e1IEamW9z6x3-fill-2" offset="100%" stop-color="rgb(6,11,47)"/></linearGradient><linearGradient id="e1IEamW9z6x4-fill" x1="0" y1="183.78" x2="0" y2="-183.78" spreadMethod="pad" gradientUnits="userSpaceOnUse" gradientTransform="matrix(1 0 0 1 0 0)"><stop id="e1IEamW9z6x4-fill-0" offset="4%" stop-color="rgb(37,245,233)"/><stop id="e1IEamW9z6x4-fill-1" offset="60%" stop-color="rgb(12,13,245)"/><stop id="e1IEamW9z6x4-fill-2" offset="100%" stop-color="rgb(6,11,47)"/></linearGradient><linearGradient id="e1IEamW9z6x9-fill" x1="215.05" y1="394.06" x2="519.83" y2="394.06" spreadMethod="pad" gradientUnits="userSpaceOnUse" gradientTransform="matrix(1 0 0 1 0 0)"><stop id="e1IEamW9z6x9-fill-0" offset="4%" stop-color="rgb(37,245,233)"/><stop id="e1IEamW9z6x9-fill-1" offset="60%" stop-color="rgb(12,13,245)"/><stop id="e1IEamW9z6x9-fill-2" offset="100%" stop-color="rgb(6,11,47)"/></linearGradient><linearGradient id="e1IEamW9z6x11-fill" x1="326.4" y1="565.36" x2="326.4" y2="540.3" spreadMethod="pad" gradientUnits="userSpaceOnUse" gradientTransform="matrix(1 0 0 1 0 0)"><stop id="e1IEamW9z6x11-fill-0" offset="0%" stop-color="rgb(247,170,0)"/><stop id="e1IEamW9z6x11-fill-1" offset="92%" stop-color="rgb(211,137,30)"/></linearGradient><linearGradient id="e1IEamW9z6x18-fill" x1="358.18" y1="540.48" x2="358.18" y2="517" spreadMethod="pad" gradientUnits="userSpaceOnUse" gradientTransform="matrix(1 0 0 1 0 0)"><stop id="e1IEamW9z6x18-fill-0" offset="0%" stop-color="rgb(107,69,43)"/><stop id="e1IEamW9z6x18-fill-1" offset="50%" stop-color="rgb(95,60,36)"/><stop id="e1IEamW9z6x18-fill-2" offset="100%" stop-color="rgb(89,56,33)"/></linearGradient><linearGradient id="e1IEamW9z6x19-fill" x1="299.89" y1="500.99" x2="319.63" y2="500.99" spreadMethod="pad" gradientUnits="userSpaceOnUse" gradientTransform="matrix(1 0 0 1 0 0)"><stop id="e1IEamW9z6x19-fill-0" offset="0%" stop-color="rgb(6,11,148)"/><stop id="e1IEamW9z6x19-fill-1" offset="27%" stop-color="rgb(8,12,183)"/><stop id="e1IEamW9z6x19-fill-2" offset="58%" stop-color="rgb(10,12,217)"/><stop id="e1IEamW9z6x19-fill-3" offset="83%" stop-color="rgb(12,13,237)"/><stop id="e1IEamW9z6x19-fill-4" offset="100%" stop-color="rgb(12,13,245)"/></linearGradient><linearGradient id="e1IEamW9z6x27-fill" x1="315.79" y1="566.79" x2="345.56" y2="566.79" spreadMethod="pad" gradientUnits="userSpaceOnUse" gradientTransform="matrix(1 0 0 1 0 0)"><stop id="e1IEamW9z6x27-fill-0" offset="0%" stop-color="rgb(107,69,43)"/><stop id="e1IEamW9z6x27-fill-1" offset="50%" stop-color="rgb(95,60,36)"/><stop id="e1IEamW9z6x27-fill-2" offset="100%" stop-color="rgb(89,56,33)"/></linearGradient><linearGradient id="e1IEamW9z6x34-fill" x1="328.6" y1="569.87" x2="328.6" y2="553.49" spreadMethod="pad" gradientUnits="userSpaceOnUse" gradientTransform="matrix(1 0 0 1 0 0)"><stop id="e1IEamW9z6x34-fill-0" offset="0%" stop-color="rgb(247,170,0)"/><stop id="e1IEamW9z6x34-fill-1" offset="92%" stop-color="rgb(211,137,30)"/></linearGradient><linearGradient id="e1IEamW9z6x35-fill" x1="347.07" y1="549.39" x2="347.07" y2="542.94" spreadMethod="pad" gradientUnits="userSpaceOnUse" gradientTransform="matrix(1 0 0 1 0 0)"><stop id="e1IEamW9z6x35-fill-0" offset="0%" stop-color="rgb(247,170,0)"/><stop id="e1IEamW9z6x35-fill-1" offset="92%" stop-color="rgb(211,137,30)"/></linearGradient><linearGradient id="e1IEamW9z6x43-fill" x1="297.2" y1="573.59" x2="320.73" y2="573.59" spreadMethod="pad" gradientUnits="userSpaceOnUse" gradientTransform="matrix(1 0 0 1 0 0)"><stop id="e1IEamW9z6x43-fill-0" offset="0%" stop-color="rgb(89,56,33)"/><stop id="e1IEamW9z6x43-fill-1" offset="50%" stop-color="rgb(95,60,36)"/><stop id="e1IEamW9z6x43-fill-2" offset="100%" stop-color="rgb(107,69,43)"/></linearGradient><linearGradient id="e1IEamW9z6x46-fill" x1="355.64" y1="507.28" x2="391.31" y2="507.28" spreadMethod="pad" gradientUnits="userSpaceOnUse" gradientTransform="matrix(1 0 0 1 0 0)"><stop id="e1IEamW9z6x46-fill-0" offset="0%" stop-color="rgb(6,11,148)"/><stop id="e1IEamW9z6x46-fill-1" offset="7%" stop-color="rgb(7,11,164)"/><stop id="e1IEamW9z6x46-fill-2" offset="22%" stop-color="rgb(9,12,194)"/><stop id="e1IEamW9z6x46-fill-3" offset="38%" stop-color="rgb(10,12,216)"/><stop id="e1IEamW9z6x46-fill-4" offset="55%" stop-color="rgb(11,13,232)"/><stop id="e1IEamW9z6x46-fill-5" offset="74%" stop-color="rgb(12,13,242)"/><stop id="e1IEamW9z6x46-fill-6" offset="100%" stop-color="rgb(12,13,245)"/></linearGradient><linearGradient id="e1IEamW9z6x52-fill" x1="329.4" y1="466.07" x2="349.88" y2="466.07" spreadMethod="pad" gradientUnits="userSpaceOnUse" gradientTransform="matrix(1 0 0 1 0 0)"><stop id="e1IEamW9z6x52-fill-0" offset="0%" stop-color="rgb(89,56,33)"/><stop id="e1IEamW9z6x52-fill-1" offset="50%" stop-color="rgb(95,60,36)"/><stop id="e1IEamW9z6x52-fill-2" offset="100%" stop-color="rgb(107,69,43)"/></linearGradient><linearGradient id="e1IEamW9z6x53-fill" x1="325.44" y1="470.97" x2="357.26" y2="470.97" spreadMethod="pad" gradientUnits="userSpaceOnUse" gradientTransform="matrix(1 0 0 1 0 0)"><stop id="e1IEamW9z6x53-fill-0" offset="0%" stop-color="rgb(6,11,148)"/><stop id="e1IEamW9z6x53-fill-1" offset="27%" stop-color="rgb(8,12,183)"/><stop id="e1IEamW9z6x53-fill-2" offset="58%" stop-color="rgb(10,12,217)"/><stop id="e1IEamW9z6x53-fill-3" offset="83%" stop-color="rgb(12,13,237)"/><stop id="e1IEamW9z6x53-fill-4" offset="100%" stop-color="rgb(12,13,245)"/></linearGradient><linearGradient id="e1IEamW9z6x63-fill" x1="307.6" y1="559.8" x2="307.6" y2="535.85" spreadMethod="pad" gradientUnits="userSpaceOnUse" gradientTransform="matrix(1 0 0 1 0 0)"><stop id="e1IEamW9z6x63-fill-0" offset="0%" stop-color="rgb(247,170,0)"/><stop id="e1IEamW9z6x63-fill-1" offset="92%" stop-color="rgb(211,137,30)"/></linearGradient><linearGradient id="e1IEamW9z6x64-fill" x1="359.46" y1="555.4" x2="386.61" y2="555.4" spreadMethod="pad" gradientUnits="userSpaceOnUse" gradientTransform="matrix(1 0 0 1 0 0)"><stop id="e1IEamW9z6x64-fill-0" offset="0%" stop-color="rgb(247,170,0)"/><stop id="e1IEamW9z6x64-fill-1" offset="92%" stop-color="rgb(211,137,30)"/></linearGradient><linearGradient id="e1IEamW9z6x68-fill" x1="462.57" y1="143.21" x2="440.28" y2="143.21" spreadMethod="pad" gradientUnits="userSpaceOnUse" gradientTransform="matrix(1 0 0 1 0 0)"><stop id="e1IEamW9z6x68-fill-0" offset="0%" stop-color="rgb(107,69,43)"/><stop id="e1IEamW9z6x68-fill-1" offset="50%" stop-color="rgb(95,60,36)"/><stop id="e1IEamW9z6x68-fill-2" offset="100%" stop-color="rgb(89,56,33)"/></linearGradient><linearGradient id="e1IEamW9z6x69-fill" x1="462.31" y1="167.45" x2="428.3" y2="167.45" spreadMethod="pad" gradientUnits="userSpaceOnUse" gradientTransform="matrix(1 0 0 1 0 0)"><stop id="e1IEamW9z6x69-fill-0" offset="0%" stop-color="rgb(6,11,148)"/><stop id="e1IEamW9z6x69-fill-1" offset="27%" stop-color="rgb(8,12,183)"/><stop id="e1IEamW9z6x69-fill-2" offset="58%" stop-color="rgb(10,12,217)"/><stop id="e1IEamW9z6x69-fill-3" offset="83%" stop-color="rgb(12,13,237)"/><stop id="e1IEamW9z6x69-fill-4" offset="100%" stop-color="rgb(12,13,245)"/></linearGradient><linearGradient id="e1IEamW9z6x75-fill" x1="429.43" y1="270.23" x2="412.66" y2="270.23" spreadMethod="pad" gradientUnits="userSpaceOnUse" gradientTransform="matrix(1 0 0 1 0 0)"><stop id="e1IEamW9z6x75-fill-0" offset="8%" stop-color="rgb(211,137,30)"/><stop id="e1IEamW9z6x75-fill-1" offset="100%" stop-color="rgb(247,170,0)"/></linearGradient><linearGradient id="e1IEamW9z6x76-fill" x1="402.31" y1="249.6" x2="394.74" y2="228.79" spreadMethod="pad" gradientUnits="userSpaceOnUse" gradientTransform="matrix(1 0 0 1 0 0)"><stop id="e1IEamW9z6x76-fill-0" offset="0%" stop-color="rgb(247,170,0)"/><stop id="e1IEamW9z6x76-fill-1" offset="92%" stop-color="rgb(211,137,30)"/></linearGradient><linearGradient id="e1IEamW9z6x77-fill" x1="400.97" y1="244.91" x2="395.17" y2="228.99" spreadMethod="pad" gradientUnits="userSpaceOnUse" gradientTransform="matrix(1 0 0 1 0 0)"><stop id="e1IEamW9z6x77-fill-0" offset="0%" stop-color="rgb(247,170,0)"/><stop id="e1IEamW9z6x77-fill-1" offset="92%" stop-color="rgb(211,137,30)"/></linearGradient><linearGradient id="e1IEamW9z6x78-fill" x1="405.49" y1="272.22" x2="397.94" y2="272.22" spreadMethod="pad" gradientUnits="userSpaceOnUse" gradientTransform="matrix(1 0 0 1 0 0)"><stop id="e1IEamW9z6x78-fill-0" offset="0%" stop-color="rgb(247,170,0)"/><stop id="e1IEamW9z6x78-fill-1" offset="92%" stop-color="rgb(211,137,30)"/></linearGradient><linearGradient id="e1IEamW9z6x79-fill" x1="427.03" y1="239.13" x2="419.79" y2="219.24" spreadMethod="pad" gradientUnits="userSpaceOnUse" gradientTransform="matrix(1 0 0 1 0 0)"><stop id="e1IEamW9z6x79-fill-0" offset="0%" stop-color="rgb(247,170,0)"/><stop id="e1IEamW9z6x79-fill-1" offset="92%" stop-color="rgb(211,137,30)"/></linearGradient></defs><path id="e1IEamW9z6x2" d="M231.93,531.55C41.27,636,200.61,512.48,120,439.86C-1.47,330.38,132.89,-19.35,285.9,67.38C470.14,171.8,755.82,49.73,760.55,212.27C763.74,321.66,656.02,273.6,689.55,460.91C753.88,819.93,320.67,482.91,231.93,531.55Z" opacity="0.13" fill="url(#e1IEamW9z6x2-fill)" stroke="none" stroke-width="1"/><g id="e1IEamW9z6x3_tr" transform="translate(387.263917,349.34734) rotate(0)"><circle id="e1IEamW9z6x3" r="229.11" transform="translate(0.00003,0.000027)" fill="url(#e1IEamW9z6x3-fill)" stroke="none" stroke-width="1"/></g><circle id="e1IEamW9z6x4" r="183.78" transform="matrix(1 0 0 1 384.25 349.55)" fill="url(#e1IEamW9z6x4-fill)" stroke="none" stroke-width="1"/><circle id="e1IEamW9z6x5" r="8.94" transform="matrix(1 0 0 1 296.32 294.5)" fill="rgb(240,240,240)" stroke="none" stroke-width="1"/><path id="e1IEamW9z6x6" d="M340.88,439.91C341.210159,439.311914,341.581033,438.737227,341.99,438.19C342.397682,437.659305,342.838564,437.154962,343.31,436.68C344.240438,435.724286,345.361324,434.974758,346.6,434.48C345.463643,435.114417,344.469759,435.975556,343.68,437.01C343.287726,437.516487,342.933427,438.051277,342.62,438.61C342.304516,439.155351,342.030413,439.723614,341.8,440.31Z" fill="rgb(122,83,52)" stroke="none" stroke-width="1"/><circle id="e1IEamW9z6x7" r="50.22" transform="matrix(1 0 0 1 448.54 115.53)" fill="rgb(247,170,0)" stroke="none" stroke-width="1"/><path id="e1IEamW9z6x8" d="M463.88,279.48C475.23,290.48,487.96,310.37,472.71,323.72C466.43,329.21,458,331.43,449.85,333.22C420.91,339.6,391.08,342.87,363.42,353.51C353.69,357.24,343.68,362.46,338.86,371.7C333.57,381.88,338.29,390.65,345.8,397.5C348.52,399.98,369.8,411.29,367.44,413.31" transform="matrix(1 0 0 1 1.258064 0)" paint-order="markers stroke fill" fill="none" stroke="rgb(228,228,228)" stroke-width="7" stroke-miterlimit="10"/><polyline id="e1IEamW9z6x9" points="519.83,214.52 398.92,214.52 398.92,573.59 215.05,573.59" fill="url(#e1IEamW9z6x9-fill)" stroke="none" stroke-width="1"/><circle id="e1IEamW9z6x10" r="50.22" transform="matrix(1 0 0 1 333.15 437.3)" fill="rgb(247,170,0)" stroke="none" stroke-width="1"/><path id="e1IEamW9z6x11" d="M317.76,568.28C318.04,568.28,331.3,561.12,331.3,561.12L348.12,549.05L342.76,543.22L309.24,543.98L304.69,547.48Z" fill="url(#e1IEamW9z6x11-fill)" stroke="none" stroke-width="1"/><path id="e1IEamW9z6x12" d="M353.23,527.36C353.23,527.36,352.23,525.36,356.17,523.26C360.11,521.16,364.12,524.67,364.5,526.49C364.88,528.31,366.68,530.39,366.21,531.91C365.74,533.43,360.21,534.65,359.71,533.91C359.21,533.17,353.23,527.36,353.23,527.36Z" fill="rgb(247,163,26)" stroke="none" stroke-width="1"/><path id="e1IEamW9z6x13" d="M347.36,551.7C346.03,549.81,345.84,542.04,347.36,533.5C348.88,524.96,353.18,526.35,353.18,526.35C353.391468,526.396449,353.598816,526.459992,353.8,526.54C357.8,528.18,361.85,531.12,361.49,533.54C361.78,535,348.68,553.6,347.36,551.7Z" fill="rgb(122,83,52)" stroke="none" stroke-width="1"/><g id="e1IEamW9z6x14" clip-path="url(#e1IEamW9z6x15)"><clipPath id="e1IEamW9z6x15"><path id="e1IEamW9z6x16" d="M347.36,551.7C346.03,549.81,345.84,542.04,347.36,533.5C348.88,524.96,353.18,526.35,353.18,526.35C353.391468,526.396449,353.598816,526.459992,353.8,526.54C357.8,528.18,361.85,531.12,361.49,533.54C361.78,535,348.68,553.6,347.36,551.7Z" fill="rgb(122,83,52)" stroke="none" stroke-width="1"/></clipPath><g id="e1IEamW9z6x17"><path id="e1IEamW9z6x18" d="M349,543.22C349,543.22,353.4,540.22,355.54,538.5C357.68,536.78,356.54,537.17,358.48,534.33C360.42,531.49,363.41,532.56,361.13,530.48C358.85,528.4,362.13,526.48,362.71,523.59C363.29,520.7,357.94,519.93,358.01,519.74C358.08,519.55,366.47,528.33,366.47,528.33L367.35,532.56L363.1,538.5L358.65,542.89Z" opacity="0.29" fill="url(#e1IEamW9z6x18-fill)" stroke="none" stroke-width="1"/></g></g><path id="e1IEamW9z6x19" d="M309.67,488.06L309.67,488.06C309.73,493.11,299.88,504.95,299.88,504.95L299.88,513.89L319.62,511.05L318.74,499.78L309.66,488.04L309.66,488.04" fill="url(#e1IEamW9z6x19-fill)" stroke="none" stroke-width="1"/><path id="e1IEamW9z6x20" d="M393.76,535.11C393.448327,534.058316,393.004803,533.050307,392.44,532.11C388.23,525.11,375.38,525.06,365.38,530.84C365.95,530.5,364.26,525.15,360.43,523.44L360.43,523.44C360.169554,523.326966,359.902379,523.230116,359.63,523.15C355.21,521.88,353.2,526.37,353.2,526.37C349.66,525.59,348.6,531.48,348.6,531.48L348.17,508.69C348.150138,507.874232,347.504948,507.211605,346.69,507.17L314.94,505.69C312.04,505.55,310.11,491.42,309.7,488.1C309.7,488.1,309.7,488.1,309.7,488.1C309.703688,487.88127,309.680174,487.66293,309.63,487.45C309.579826,487.23707,309.63,487.68,309.7,488.1C309.7,488.1,309.7,488.1,309.7,488.1C309.6,487.82,308.08,483.56,310.89,477.58C313.8,471.39,326.67,468.74,326.67,468.74L327.67,470.06C327.67,470.06,327.94,480.66,342.44,478.85C356.63,477.08,348.84,470.04,355.65,462.6C357.86,463.55,373.51,466.45,375.28,467.35C383.49,471.51,387.78,479.85,390.28,489.07C392.78,498.29,393.76,535.11,393.76,535.11Z" fill="rgb(12,13,245)" stroke="none" stroke-width="1"/><path id="e1IEamW9z6x21" d="M346,460.63C346.19,459.19,350.85,444.76,346.57,434.48C342.29,424.2,346,460.63,346,460.63Z" fill="rgb(35,31,32)" stroke="none" stroke-width="1"/><path id="e1IEamW9z6x22" d="M335.23,585.52C335.23,585.52,330.31,588.93,327.23,582.52C326.16,580.25,323.39,578.2,320.23,576.52C317.452311,575.053546,314.567365,573.799948,311.6,572.77L310.6,572.42C315.27,572.76,309.6,566.09,317.38,562.65C320.52,561.26,322.19,560.82,323.04,560.82C323.248189,561.191308,323.475149,561.551775,323.72,561.9C325.49,564.54,329.48,568.9,335.19,568.9C336.07,568.9,336.96,568.85,337.87,568.76C333.38,571.22,335.23,585.52,335.23,585.52Z" fill="rgb(122,83,52)" stroke="none" stroke-width="1"/><g id="e1IEamW9z6x23" clip-path="url(#e1IEamW9z6x24)"><clipPath id="e1IEamW9z6x24"><path id="e1IEamW9z6x25" d="M335.23,585.52C335.23,585.52,330.31,588.93,327.23,582.52C326.16,580.25,323.39,578.2,320.23,576.52C317.452311,575.053546,314.567365,573.799948,311.6,572.77L310.6,572.42C315.27,572.76,309.6,566.09,317.38,562.65C320.52,561.26,322.19,560.82,323.04,560.82C323.248189,561.191308,323.475149,561.551775,323.72,561.9C325.49,564.54,329.48,568.9,335.19,568.9C336.07,568.9,336.96,568.85,337.87,568.76C333.38,571.22,335.23,585.52,335.23,585.52Z" fill="rgb(122,83,52)" stroke="none" stroke-width="1"/></clipPath><g id="e1IEamW9z6x26"><path id="e1IEamW9z6x27" d="M315.79,558C315.79,558,317.58,559.89,322.16,559.23C326.74,558.57,328.08,562.67,329.04,564.15C330,565.63,335.83,562.07,336.4,566.15C336.97,570.23,348.1,574.15,345.02,575.47C341.61,576.92,333.89,569.34,331.7,569.72C323.32,571.13,315.79,558,315.79,558Z" opacity="0.16" fill="url(#e1IEamW9z6x27-fill)" stroke="none" stroke-width="1"/></g></g><polygon id="e1IEamW9z6x28" points="341.91,542.89 358.48,542.89 347.17,549.61 341.91,542.89" fill="rgb(20,18,19)" stroke="none" stroke-width="1"/><path id="e1IEamW9z6x29" d="M385.25,566.33C380.32,575.94,369.4,575.48,361.83,573.59C361.78,573.26,361.76,573.07,361.76,573.07L359,568.75C357.09,568.58,355.75,567.57,353.88,567.75C348.25,568.17,342.75,568.29,337.88,568.75C334.58,571.45,325.64,566.75,323.76,565.75C321.88,564.75,322.7,560.06,322.7,560.06C322.7,560.06,335.8,555.66,346.33,548.41C347.19,547.82,348.03,547.21,348.85,546.59C351.75136,544.447951,354.304747,541.870953,356.42,538.95C357.81779,536.912638,359.501746,535.08723,361.42,533.53C362.640697,532.534088,363.941815,531.641032,365.31,530.86C366.678185,530.078968,376.55,523.66,383,526C389.45,528.34,391.06,527.9,393.72,535.11C396.56,544.56,389.68,557.69,385.25,566.33Z" fill="rgb(247,170,0)" stroke="none" stroke-width="1"/><g id="e1IEamW9z6x30" clip-path="url(#e1IEamW9z6x31)"><clipPath id="e1IEamW9z6x31"><path id="e1IEamW9z6x32" d="M385.25,566.33C380.32,575.94,369.4,575.48,361.83,573.59C361.78,573.26,361.76,573.07,361.76,573.07L359,568.75C357.09,568.58,355.75,567.57,353.88,567.75C348.25,568.17,342.75,568.29,337.88,568.75C334.58,571.45,325.64,566.75,323.76,565.75C321.88,564.75,322.7,560.06,322.7,560.06C322.7,560.06,335.8,555.66,346.33,548.41C347.19,547.82,348.03,547.21,348.85,546.59C351.75136,544.447951,354.304747,541.870953,356.42,538.95C357.81779,536.912638,359.501746,535.08723,361.42,533.53C362.640697,532.534088,363.941815,531.641032,365.31,530.86C366.678185,530.078968,376.55,523.66,383,526C389.45,528.34,391.06,527.9,393.72,535.11C396.56,544.56,389.68,557.69,385.25,566.33Z" fill="rgb(247,170,0)" stroke="none" stroke-width="1"/></clipPath><g id="e1IEamW9z6x33"><path id="e1IEamW9z6x34" d="M329.46,566.34C325.1,562.22,324.3,567.14,324.27,562.88C324.24,558.62,327.08,558.4,327.08,558.4L322.56,555.4L321.5,569.4L335.71,571.76" opacity="0.7" fill="url(#e1IEamW9z6x34-fill)" stroke="none" stroke-width="1"/><path id="e1IEamW9z6x35" d="M350.42,545.32C350.2,539.8,343.72,550.11,343.72,550.11C343.72,550.11,350.64,550.84,350.42,545.32" opacity="0.72" fill="url(#e1IEamW9z6x35-fill)" stroke="none" stroke-width="1"/></g></g><path id="e1IEamW9z6x36" d="M289.54,520.11C298.93,525.65,307.36,536.29,308.71,541.95C308.955426,542.870494,309.290356,543.764756,309.71,544.62" fill="none" stroke="rgb(35,31,32)" stroke-width="1" stroke-miterlimit="10"/><path id="e1IEamW9z6x37" d="M362.4,571.55C363.684285,575.819363,363.944652,580.331245,363.16,584.72C362.942026,586.286348,362.469105,587.806449,361.76,589.22C359.86,592.16,349.25,587.41,343.95,588.93C338.65,590.45,335.23,585.52,335.23,585.52C335.23,585.52,333.77,580.11,334.43,576.17C335.09,572.23,335.56,569.89,337.91,568.28C340.26,566.67,361.06,565.45,361.91,569.7C362.09,570.41,362.25,571,362.4,571.55Z" fill="rgb(35,31,32)" stroke="none" stroke-width="1"/><path id="e1IEamW9z6x38" d="M320.29,576.47C318.87,578.67,309.4,581.78,302.49,581.96C301.15,579.91,299.49,575.47,302.65,568.28L302.65,568.28C304.154318,569.432789,305.753337,570.456429,307.43,571.34L307.43,571.34C308.178562,571.744853,308.979466,572.044351,309.81,572.23C310.1,572.23,310.36,572.32,310.6,572.34L311.6,572.69C314.588717,573.726821,317.493841,574.990499,320.29,576.47Z" fill="rgb(107,69,43)" stroke="none" stroke-width="1"/><g id="e1IEamW9z6x39" clip-path="url(#e1IEamW9z6x40)"><clipPath id="e1IEamW9z6x40"><path id="e1IEamW9z6x41" d="M320.29,576.47C318.87,578.67,309.4,581.78,302.49,581.96C301.15,579.91,299.49,575.47,302.65,568.28L302.65,568.28C304.154318,569.432789,305.753337,570.456429,307.43,571.34L307.43,571.34C308.178562,571.744853,308.979466,572.044351,309.81,572.23C310.1,572.23,310.36,572.32,310.6,572.34L311.6,572.69C314.588717,573.726821,317.493841,574.990499,320.29,576.47Z" fill="rgb(107,69,43)" stroke="none" stroke-width="1"/></clipPath><g id="e1IEamW9z6x42"><path id="e1IEamW9z6x43" d="M299.78,573.14C299.78,573.14,301.53,576.82,303.52,575.88C305.51,574.94,306.96,578.54,308.52,579.08C310.08,579.62,316.22,580.02,317.86,579.08C319.5,578.14,320.71,575.26,320.71,575.26L307.71,569.98L300.54,567.55L297.16,570.17L299.74,573.17" opacity="0.29" fill="url(#e1IEamW9z6x43-fill)" stroke="none" stroke-width="1"/></g></g><path id="e1IEamW9z6x44" d="M292.45,559.79C291.89,559.59,272.63,552.89,266.65,568.71C260.65,584.71,291.65,580.03,298.48,581.64C299.793997,581.918423,301.138451,582.02598,302.48,581.96C300.42282,577.618893,300.481851,572.571805,302.64,568.28L302.64,568.28L292.44,559.79" fill="rgb(35,31,32)" stroke="none" stroke-width="1"/><path id="e1IEamW9z6x45" d="M348.88,546.89C348.891405,547.334857,348.70982,547.762899,348.382023,548.063859C348.054226,548.364819,347.612267,548.50927,347.17,548.46L346.36,548.38L309.67,544.62L292.34,542.84C291.606963,542.741211,291.045865,542.138241,291,541.4L289.59,520.11L288.67,506.17C288.644232,505.730267,288.805568,505.300136,289.114169,504.98582C289.422769,504.671504,289.849869,504.502304,290.29,504.52L299.94,504.97L314.94,505.67L346.69,507.15C347.504948,507.191605,348.150138,507.854232,348.17,508.67L348.6,531.46L348.9,546.56Z" fill="rgb(35,31,32)" stroke="none" stroke-width="1"/><path id="e1IEamW9z6x46" d="M355.64,523.59C357.447339,522.348196,359.609131,521.727032,361.8,521.82C363.85,521.72,368.8,523.61,370.13,523.26C370.71,523.11,372.21,522.68,372.76,522.45C375.12,521.45,383.76,521.45,391.31,526.45C391.31,526.45,374.81,515.51,373.47,510.65C372.41,506.81,372.79,503.65,374.83,499.09C378.01,491.94,375.02,487.88,373.47,488.02C374.83,489.72,375.87,491.71,372.74,494.55C360.96,505.27,372.74,518.63,370.74,521.2C369.51,522.74,366.88,522.32,364.93,521.75C364.34,521.58,363.33,521.38,362.32,521.2C360.328149,520.846659,358.281499,521.383904,356.72,522.67Z" fill="url(#e1IEamW9z6x46-fill)" stroke="none" stroke-width="1"/><path id="e1IEamW9z6x47" d="M357.26,462.56C347.63,477.85,347.03,478.4,342.43,478.81C334.24,479.55,326.64,468.7,326.64,468.7C328.430942,468.008106,330.17758,467.206589,331.87,466.3L341.87,461.89L342.79,461.89C345.45,460.3,348.84,461.89,353.14,461.89C357,461.89,354.65,461.53,357.26,462.56Z" fill="rgb(107,69,43)" stroke="none" stroke-width="1"/><g id="e1IEamW9z6x48" clip-path="url(#e1IEamW9z6x49)"><clipPath id="e1IEamW9z6x49"><path id="e1IEamW9z6x50" d="M357.26,462.56C347.63,477.85,347.03,478.4,342.43,478.81C334.24,479.55,326.64,468.7,326.64,468.7C328.430942,468.008106,330.17758,467.206589,331.87,466.3L341.87,461.89L342.79,461.89C345.45,460.3,348.84,461.89,353.14,461.89C357,461.89,354.65,461.53,357.26,462.56Z" fill="rgb(107,69,43)" stroke="none" stroke-width="1"/></clipPath><g id="e1IEamW9z6x51"><path id="e1IEamW9z6x52" d="M329.4,467.52C329.4,467.52,344.2,480.34,349.88,461.89C349.88,461.89,343.06,459.38,337.63,460.63C332.2,461.88,329.4,467.52,329.4,467.52Z" opacity="0.29" fill="url(#e1IEamW9z6x52-fill)" stroke="none" stroke-width="1"/></g></g><path id="e1IEamW9z6x53" d="M357.26,462.56C353.09,471.87,350.08,477.68,343.97,479.56C330,484,325.44,469.23,325.44,469.23L330.78,466.86C330.78,466.86,333.22,476.58,341.34,475.29C343.45,474.96,341.84,477.11,351.47,461.81C354.1,461.18,355.18,461.66,357.26,462.56Z" fill="url(#e1IEamW9z6x53-fill)" stroke="none" stroke-width="1"/><path id="e1IEamW9z6x54" d="M319.72,443.06C319.72,443.06,314.21,426.2,330.12,422.41C346.03,418.62,352.69,436.23,345.29,441.92L334.29,448.65Z" fill="rgb(35,31,32)" stroke="none" stroke-width="1"/><path id="e1IEamW9z6x55" d="M326.7,428.53C316.29,449.43,318.23,434.45,318.8,425.16C319.37,415.87,345.22,416.22,347.44,424.16C349.66,432.1,348.88,437.24,347.44,437.92C346,438.6,339.44,425.92,339.44,425.92Z" fill="rgb(35,31,32)" stroke="none" stroke-width="1"/><path id="e1IEamW9z6x56" d="M346,439.45C346.580082,439.13486,347.249833,439.025585,347.9,439.14C349.47,439.41,351.9,440.49,350.18,444.71C347.71,450.65,351.47,452.01,348.78,453.29C346.09,454.57,346.42,456.76,345.97,453.29L340.62,453.29C340.62,453.29,341.75,442.54,341.54,442.16C341.33,441.78,344.45,440.22,346,439.45Z" fill="rgb(107,69,43)" stroke="none" stroke-width="1"/><path id="e1IEamW9z6x57" d="M322.1,439.1C316.59,443.19,318.27,461.3,334.6,467.31C349.76,472.89,347.68,447.4,345.6,442.87C342.81,437,334.61,429.81,322.1,439.1Z" fill="rgb(122,83,52)" stroke="none" stroke-width="1"/><path id="e1IEamW9z6x58" d="M322.56,562C322.38,561.2,322.98,561.38,323.08,560.79C322.23,560.79,320.56,561.23,317.42,562.62C309.64,566.06,315.31,572.73,310.64,572.39C310.4,572.39,310.14,572.33,309.85,572.28C309.019466,572.094351,308.218562,571.794853,307.47,571.39L307.47,571.39C305.793337,570.506429,304.194318,569.482789,302.69,568.33L302.69,568.33C299.63,566.08,296.1,563.08,292.51,559.84L292.51,559.84C287.51,555.32,282.34,550.36,278.09,546.35C267.85,536.68,265.2,516.99,278.09,516.61C281.81,516.51,285.79,517.91,289.6,520.16L291,541.4C291.049817,542.154901,291.63733,542.763547,292.39,542.84L309.72,544.62C313.12,552,322.73,560,322.73,560C324.11,560,322.56,562,322.56,562Z" fill="rgb(247,170,0)" stroke="none" stroke-width="1"/><g id="e1IEamW9z6x59" clip-path="url(#e1IEamW9z6x60)"><clipPath id="e1IEamW9z6x60"><path id="e1IEamW9z6x61" d="M322.56,562C322.38,561.2,322.98,561.38,323.08,560.79C322.23,560.79,320.56,561.23,317.42,562.62C309.64,566.06,315.31,572.73,310.64,572.39C310.4,572.39,310.14,572.33,309.85,572.28C309.019466,572.094351,308.218562,571.794853,307.47,571.39L307.47,571.39C305.793337,570.506429,304.194318,569.482789,302.69,568.33L302.69,568.33C299.63,566.08,296.1,563.08,292.51,559.84L292.51,559.84C287.51,555.32,282.34,550.36,278.09,546.35C267.85,536.68,265.2,516.99,278.09,516.61C281.81,516.51,285.79,517.91,289.6,520.16L291,541.4C291.049817,542.154901,291.63733,542.763547,292.39,542.84L309.72,544.62C313.12,552,322.73,560,322.73,560C324.11,560,322.56,562,322.56,562Z" fill="rgb(247,170,0)" stroke="none" stroke-width="1"/></clipPath><g id="e1IEamW9z6x62"><path id="e1IEamW9z6x63" d="M290.77,538.65C290.77,538.65,287.68,545.55,299.15,546.25C307,546.73,309.09,545.14,310.15,548.47C311.21,551.8,316.25,557.33,318.77,559.22C321.29,561.11,323.28,562.75,324.29,562.58C325.3,562.41,324.6,556.72,324.29,556.16C323.98,555.6,309.19,541.57,309.19,541.57Z" opacity="0.72" fill="url(#e1IEamW9z6x63-fill)" stroke="none" stroke-width="1"/></g></g><path id="e1IEamW9z6x64" d="M359.46,566.34C359.74,566.34,363.28,565.95,367.19,565.41C373.735628,564.501706,379.548602,560.755649,383.08,555.17C385.22,551.79,387.08,547.9,386.51,544.47C386.51,544.47,382.92,560.16,359.46,566.34Z" opacity="0.44" fill="url(#e1IEamW9z6x64-fill)" stroke="none" stroke-width="1"/><polygon id="e1IEamW9z6x65" points="313.55,522.62 316.54,531.34 320.29,522.62 316.92,526.27 313.55,522.62" fill="rgb(20,18,19)" stroke="none" stroke-width="1"/><polygon id="e1IEamW9z6x66" points="348.12,508.42 348.31,509.05 349,546.25 348.88,546.89 348.12,508.42" fill="rgb(20,18,19)" stroke="none" stroke-width="1"/><path id="e1IEamW9z6x67" d="M442.29,136.85C442.02,136.6,418.05,137.04,421.48,119.54C424.91,102.04,429.37,103.93,435.54,97.54C441.71,91.15,436.4,92.54,453.38,94.96C470.36,97.38,474.33,125.67,469.09,130.96C463.85,136.25,445.78,140.1,442.29,136.85Z" fill="rgb(20,18,19)" stroke="none" stroke-width="1"/><path id="e1IEamW9z6x68" d="M454.85,137.9L455.2,140.4C455.566773,142.614706,456.738356,144.616011,458.49,146.02L462.58,148.53C462.58,148.53,444.58,151.06,440.28,142.42C440.28,142.42,443.88,143.56,444.74,141.33C445.2188,139.984373,444.821567,138.482831,443.74,137.55Z" fill="url(#e1IEamW9z6x68-fill)" stroke="none" stroke-width="1"/><path id="e1IEamW9z6x69" d="M462.31,177.35L455.62,185.24C455.62,185.24,439,193,438.47,193C437.94,193,428.3,182,428.3,182L439,142C439,142,437.77,141.9,441.74,143.26C443.56,143.89,447.09,150.58,453.81,145.41L455.69,143.12Z" fill="url(#e1IEamW9z6x69-fill)" stroke="none" stroke-width="1"/><path id="e1IEamW9z6x70" d="M457.36,185.6C457.95207,187.157308,459.312286,188.293979,460.95,188.6C466.32,189.6,478.18,192.99,477.29,204.06C476.13,218.34,460.69,220.27,443.71,218.34C443.71,218.34,432.9,226.44,433.29,236.86C433.68,247.28,436.76,268.51,429.43,273.53C429.43,273.53,409.36,268.12,404.35,271.21C399.34,274.3,400.87,271.6,402.03,268.12C403.19,264.64,406.27,240.72,406.27,240.72C406.27,240.72,404.73,247.8,404.27,245.48C403.63,242.63,390.37,231.33,388.57,231.48C386.77,231.63,386.64,229.55,388.57,227.11C390.5,224.67,410.83,194.43,416.1,192.11C421.37,189.79,432.05,192.5,433.6,189.03C435.15,185.56,455.85,181.69,455.85,181.69Z" fill="rgb(247,163,26)" stroke="none" stroke-width="1"/><g id="e1IEamW9z6x71" clip-path="url(#e1IEamW9z6x72)"><clipPath id="e1IEamW9z6x72"><path id="e1IEamW9z6x73" d="M457.36,185.6C457.95207,187.157308,459.312286,188.293979,460.95,188.6C466.32,189.6,478.18,192.99,477.29,204.06C476.13,218.34,460.69,220.27,443.71,218.34C443.71,218.34,432.9,226.44,433.29,236.86C433.68,247.28,436.76,268.51,429.43,273.53C429.43,273.53,409.36,268.12,404.35,271.21C399.34,274.3,400.87,271.6,402.03,268.12C403.19,264.64,406.27,240.72,406.27,240.72C406.27,240.72,404.73,247.8,404.27,245.48C403.63,242.63,390.37,231.33,388.57,231.48C386.77,231.63,386.64,229.55,388.57,227.11C390.5,224.67,410.83,194.43,416.1,192.11C421.37,189.79,432.05,192.5,433.6,189.03C435.15,185.56,455.85,181.69,455.85,181.69Z" fill="rgb(247,163,26)" stroke="none" stroke-width="1"/></clipPath><g id="e1IEamW9z6x74"><path id="e1IEamW9z6x75" d="M419.35,266.37C419.35,266.37,429.22,271.17,429.43,273.49C429.64,275.81,412.66,270.66,412.66,270.66Z" opacity="0.65" fill="url(#e1IEamW9z6x75-fill)" stroke="none" stroke-width="1"/><path id="e1IEamW9z6x76" d="M388.52,231.05C386.25,232.89,393.25,236.84,393.25,236.84L397.4,240.61L405.04,248.61L407.63,242.49" fill="url(#e1IEamW9z6x76-fill)" stroke="none" stroke-width="1"/><path id="e1IEamW9z6x77" d="M407.63,242.49C407.63,242.49,392.68,229.58,388.52,231.42" fill="url(#e1IEamW9z6x77-fill)" stroke="none" stroke-width="1"/><polygon id="e1IEamW9z6x78" points="402.05,269.32 397.94,271 401.57,275.12 405.5,273.49 402.05,269.32" opacity="0.65" fill="url(#e1IEamW9z6x78-fill)" stroke="none" stroke-width="1"/></g></g><path id="e1IEamW9z6x79" d="M405.5,246.54C405.92,243.37,417.5,232.32,420.81,226.92C424.12,221.52,424.54,222.41,428.92,219.07C433.3,215.73,430.97,213.07,435.09,215.47C437.74529,216.980018,440.676391,217.942317,443.71,218.3C446.743609,218.657683,443.97,219.3,440.24,219.2C436.51,219.1,434.19,215.08,433.16,216.37C432.13,217.66,428.53,223,425.7,223.44C422.87,223.88,418.45,234.56,415.15,236.18C411.85,237.8,407.54,245.7,406.52,246.47C405.5,247.24,405.5,246.54,405.5,246.54Z" opacity="0.68" fill="url(#e1IEamW9z6x79-fill)" stroke="none" stroke-width="1"/><path id="e1IEamW9z6x80" d="M418.65,266.49C418.783718,266.46158,418.921744,266.513613,419.003422,266.623234C419.085101,266.732855,419.09548,266.879998,419.03,267C417.41,270.24,410.13,284.91,410.43,287.81C410.63474,290.035301,410.63474,292.274699,410.43,294.5C410.22526,296.725301,407.77,292.1,405.51,292.95C403.25,293.8,406.51,289.35,402.04,289.52C397.57,289.69,398.78,289.69,398.78,289.69C399.734351,287.613968,400.426347,285.427128,400.84,283.18C401.73,279.18,401.63,271.81,401.59,269.88C401.5856,269.605905,401.780269,269.368917,402.05,269.32Z" fill="rgb(122,83,52)" stroke="none" stroke-width="1"/><path id="e1IEamW9z6x81" d="M397.4,235C397.4,235,391.74,243.23,390.54,245.29C389.34,247.35,382.65,252.84,380.93,253.69C379.21,254.54,387.48,255.75,387.12,259.53C386.76,263.31,392.6,263.81,393.45,261.93C394.3,260.05,397.4,259.35,397.4,256.44C397.4,253.53,403.3,246.66,405.5,241.69C407.7,236.72,397.4,235,397.4,235Z" fill="rgb(122,83,52)" stroke="none" stroke-width="1"/><path id="e1IEamW9z6x82" d="M409.87,288.81C409.87,288.81,412.66,288.32,413.69,295.7C413.69,295.7,415.41,296.9,415.41,300.16C415.41,303.42,416.09,303.42,413.18,305.47C410.27,307.52,406.56,312.34,405.5,315.77C404.44,319.2,397.4,324.17,392.25,323.83C387.1,323.49,384.88,322.46,384.36,320.57C383.84,318.68,385.05,313.88,388.99,307.88C392.93,301.88,396.88,293.3,396.37,290.38C395.86,287.46,404.52,288.63,404.13,290.11C404.13,290.11,403.19,294.03,404.75,292.98C406.31,291.93,409.9,293.13,410.42,294.5C410.94,295.87,411.69,289.84,409.87,288.81Z" fill="rgb(35,31,32)" stroke="none" stroke-width="1"/><path id="e1IEamW9z6x83" d="M397.4,256.42C397.4,256.42,399.29,269.8,396.03,271.68C392.77,273.56,376.47,277.34,374.59,278.89C372.71,280.44,359.66,278.72,356.92,276.32C354.18,273.92,351.43,272.96,354.35,267.95C354.35,267.95,361.72,265.07,364.64,262.95C367.56,260.83,373.19,259.31,375.52,256.4C377.85,253.49,382.22,250.22,383.98,251.51C385.74,252.8,380.81,252.45,380.7,254.34C380.59,256.23,386.11,253.48,387.12,259.49C388.13,265.5,388.48,263.3,391.4,262.94C394.32,262.58,392.92,261.24,395.68,259.59C398.44,257.94,397.4,256.42,397.4,256.42Z" fill="rgb(35,31,32)" stroke="none" stroke-width="1"/><path id="e1IEamW9z6x84" d="M454.17,140C454.17,140,461.11,131.24,456.31,122.66C451.51,114.08,449.2,115.11,446.31,115.11C443.42,115.11,438.08,125.92,439.31,129.69C440.54,133.46,443.43,140.5,446.69,141.69C449.95,142.88,451.26,142.73,454.17,140Z" fill="rgb(122,83,52)" stroke="none" stroke-width="1"/><path id="e1IEamW9z6x85" d="M429.29,172.5C429.29,169.39,429.99,169.24,429.22,173.35C428.45,177.46,424.6,172,424.6,172C417.07,171.61,417.39,175.6,417.39,175.6C416.39,174.6,416.69,173.67,417.47,172C418.25,170.33,417.08,168.27,417.47,167.11C417.86,165.95,420.94,164.79,420.68,163.25C420.42,161.71,421.84,159.13,423,157.72C424.16,156.31,423.26,154.11,423.74,151.41C424.22,148.71,425.96,147.34,427.74,144.01C429.52,140.68,429.41,141.42,435.33,140.78C441.25,140.14,441.8,143.22,441.8,143.22C441.8,143.22,439.57,144.08,439.06,148.22C438.55,152.36,436.06,156.84,434.81,160.22C433.56,163.6,435.81,188.15,433.23,190.79L422.42,193.88L425.17,176.22C425.17,176.22,429.29,176.49,429.29,172.5Z" fill="rgb(12,13,245)" stroke="none" stroke-width="1"/><path id="e1IEamW9z6x86" d="M455.77,142.39C455.77,142.39,455.77,174.3,457.77,177.13L458.29,178.13L455.97,180.58C455.97,180.58,465.88,184.31,472.31,189.71C472.31,189.71,479.51,176.97,480.03,172.71C480.55,168.45,471.19,153.88,470.41,150.41C469.63,146.94,468.41,144.71,461.76,144.36C455.74,144.1,455.77,142.39,455.77,142.39Z" fill="rgb(12,13,245)" stroke="none" stroke-width="1"/><path id="e1IEamW9z6x87" d="M477.49,177.22C477.49,177.22,476.73,180.14,483.03,181.56C489.33,182.98,481.23,207.16,481.23,207.16C481.23,207.16,483.29,209.73,484.84,209.47C486.39,209.21,483.68,213.2,479.43,213.2C477.099222,213.320834,475.076167,211.608681,474.81,209.29L465.21,191.1C463.94,189.68,453.59,183.44,454.92,182.1L460.48,176.4L477.48,177.25" fill="rgb(12,13,245)" stroke="none" stroke-width="1"/><path id="e1IEamW9z6x88" d="M457.2,197.26L457.52,197.78L469.84,188C469.981386,187.886178,470.071399,187.720554,470.09,187.54L470.09,187.26Z" fill="rgb(35,31,32)" stroke="none" stroke-width="1"/><polygon id="e1IEamW9z6x89" points="458,196.76 470.12,187.28 454.5,185.93 458,196.76" fill="rgb(20,18,19)" stroke="none" stroke-width="1"/><path id="e1IEamW9z6x90" d="M458,196.87C458.007428,197.172086,457.884349,197.462728,457.662235,197.66761C457.440121,197.872491,457.140505,197.971748,456.84,197.94L456.29,197.88L431.38,195.33L419.6,194.12C419.071276,194.08822,418.659046,193.649677,418.66,193.12L417.66,178.67L417.03,169.2C416.991483,168.896365,417.094138,168.591812,417.308602,168.373448C417.523066,168.155085,417.825721,168.04696,418.13,168.08L424.68,168.39L434.89,168.86L456.45,169.86C457.002285,169.86,457.45,170.307715,457.45,170.86L457.75,186.34L457.95,196.59Z" fill="rgb(35,31,32)" stroke="none" stroke-width="1"/><polygon id="e1IEamW9z6x91" points="434.01,180.39 436.04,186.31 438.58,180.39 436.3,182.87 434.01,180.39" fill="rgb(20,18,19)" stroke="none" stroke-width="1"/><path id="e1IEamW9z6x92" d="M458,190.12C458,190.12,466.59,184.34,468.52,182.47C470.45,180.6,470.06,178.23,469.42,177.65C468.78,177.07,464.89,175.46,463.97,177.07C463.05,178.68,457.81,185.14,457.81,185.14Z" fill="rgb(122,83,52)" stroke="none" stroke-width="1"/><path id="e1IEamW9z6x93" d="M463.88,177.84C463.88,177.84,464.39,152.25,467.41,152.28C470.43,152.31,473.96,156.77,474.28,160.79C474.6,164.81,472.4,180.37,467.97,181.94C463.54,183.51,463.88,177.84,463.88,177.84Z" fill="rgb(122,83,52)" stroke="none" stroke-width="1"/><polygon id="e1IEamW9z6x94" points="485.44,377.35 495.44,377.35 490.44,386.02 485.44,394.69 480.43,386.02 475.43,377.35 485.44,377.35" fill="rgb(240,240,240)" stroke="none" stroke-width="1"/></svg>