<svg id="eWD5Rh6MNAl1" xmlns="http://www.w3.org/2000/svg" xmlns:xlink="http://www.w3.org/1999/xlink" viewBox="0 0 841.89 649.02" shape-rendering="geometricPrecision" text-rendering="geometricPrecision"><style><![CDATA[#eWD5Rh6MNAl29_to {animation: eWD5Rh6MNAl29_to__to 16129.032258064517ms linear infinite normal forwards}@keyframes eWD5Rh6MNAl29_to__to { 0% {transform: translate(368.540009px,463.079987px);animation-timing-function: cubic-bezier(0.445,0.05,0.55,0.95)} 27.6% {transform: translate(395.58px,461.905px);animation-timing-function: cubic-bezier(0.445,0.05,0.55,0.95)} 55.8% {transform: translate(368.623503px,493.29px);animation-timing-function: cubic-bezier(0.445,0.05,0.55,0.95)} 80% {transform: translate(340.980011px,463.080002px);animation-timing-function: cubic-bezier(0.445,0.05,0.55,0.95)} 100% {transform: translate(368.623503px,461.905px)}} #eWD5Rh6MNAl59 {animation: eWD5Rh6MNAl59__m 16129.032258064517ms linear infinite normal forwards}@keyframes eWD5Rh6MNAl59__m { 0% {d: path('M365.25,264.62C365.25,264.62,365.89,254.95,402.88,233.27C439.87,211.59,437.48,233.49,499.18,210.38C530.01,198.84,627.49,198.02,628.97,248.76C629.7,273.91,644.68,336.5,623.85,358C601.5,381.07,535.21,390.24,514.6,390.4C490.93,390.58,464.71,378.05,446.81,351.91C428.91,325.76,412.17,339.33,393.5,338.77C374.83,338.22,365.25,294.5,365.25,294.5L365.25,264.62Z');animation-timing-function: cubic-bezier(0.445,0.05,0.55,0.95)} 23.6% {d: path('M365.25,264.62C365.25,264.62,365.89,254.95,402.88,233.27C439.87,211.59,437.48,233.49,499.18,210.38C530.01,198.84,599.569018,212.645,601.049018,263.385C601.779018,288.535,621.879018,336.5,601.049018,358C578.699018,381.07,537.739583,389.742606,517.129583,389.902606C493.459583,390.082606,464.71,378.05,446.81,351.91C428.91,325.76,412.17,339.33,393.5,338.77C374.83,338.22,365.25,294.5,365.25,294.5L365.25,264.62Z');animation-timing-function: cubic-bezier(0.445,0.05,0.55,0.95)} 55.8% {d: path('M365.25,264.62C365.25,264.62,365.89,254.95,402.88,233.27C439.87,211.59,429.608219,238.83,491.308219,215.72C522.138219,204.18,622.37,198.02,623.85,248.76C624.58,273.91,606.81,330.41,585.98,351.91C563.63,374.98,537.739583,389.742606,517.129583,389.902606C493.459583,390.082606,464.71,378.05,446.81,351.91C428.91,325.76,412.17,339.33,393.5,338.77C374.83,338.22,365.25,294.5,365.25,294.5L365.25,264.62Z');animation-timing-function: cubic-bezier(0.445,0.05,0.55,0.95)} 80% {d: path('M365.25,264.62C365.25,264.62,365.89,254.95,402.88,233.27C439.87,211.59,429.608219,238.83,491.308219,215.72C522.138219,204.18,603.442223,191.6,604.922223,242.34C605.652223,267.49,611.19,356.461258,590.36,377.961258C568.01,401.031258,537.739583,389.742606,517.129583,389.902606C493.459583,390.082606,464.71,378.05,446.81,351.91C428.91,325.76,412.17,339.33,393.5,338.77C374.83,338.22,365.25,294.5,365.25,294.5L365.25,264.62Z');animation-timing-function: cubic-bezier(0.445,0.05,0.55,0.95)} 100% {d: path('M365.25,264.62C365.25,264.62,365.89,254.95,402.88,233.27C439.87,211.59,429.608219,238.83,491.308219,215.72C522.138219,204.18,612.479701,218.11,613.959701,268.85C614.689701,294,606.47,341.62,585.64,363.12C563.29,386.19,537.739583,389.742606,517.129583,389.902606C493.459583,390.082606,464.71,378.05,446.81,351.91C428.91,325.76,412.17,339.33,393.5,338.77C374.83,338.22,365.25,294.5,365.25,294.5L365.25,264.62Z')}} #eWD5Rh6MNAl70_to {animation: eWD5Rh6MNAl70_to__to 16129.032258064517ms linear infinite normal forwards}@keyframes eWD5Rh6MNAl70_to__to { 0% {transform: translate(411.722974px,102.340323px)} 2% {transform: translate(411.722974px,102.340323px);animation-timing-function: cubic-bezier(0.445,0.05,0.55,0.95)} 100% {transform: translate(406.907425px,87.093453px)}}]]></style><defs><path id="eWD5Rh6MNAl2" d="M472.07,494.18C294.03,544.74,256.31,432.34,187.71,370.53C84.28,277.36,109.95,52.71,294.88,111.99C479.81,171.27,626.92,-25.49,701.3,183.93C743.85,303.73,671.69,284.45,652.69,379.33C615.91,563.03,490.13,489.05,472.07,494.18Z"/><path id="eWD5Rh6MNAl3" d="M354.76,574.48C358.33,573.36,355.54,569.14,358.45,566.23C361.36,563.32,362.82,550.45,367.19,532.73C371.56,515.01,364.03,476.66,362.82,470.84C361.61,465.01,358.45,463.8,357.97,459.19C357.48,454.58,356.51,452.88,351.9,446.57C347.29,440.26,340.98,415.26,340.98,415.26L340.98,409.23L331.51,404.68C331.51,404.68,333.69,447.39,353.55,476.23C353.55,476.23,356.81,481.13,358.17,495.54C359.53,509.95,365.24,542.33,355.45,564.91C350.53,576.26,349.32,581.15,349.33,583.2C349.33,583.2,351.19,575.6,354.76,574.48Z"/><path id="eWD5Rh6MNAl4" d="M387.01,551.04C383.2,546.42,380.48,543.42,384.02,529.82C387.56,516.22,391.91,487.11,389.19,473.51C386.47,459.91,381.57,455.83,378.85,444.13C377.56,438.6,377.68,434.66,378.15,432.03L340.98,409.23L340.98,409.23L340.98,415.26C340.98,415.26,347.29,440.26,351.9,446.57C356.51,452.88,357.48,454.58,357.97,459.19C358.46,463.8,361.61,465.02,362.82,470.84C364.03,476.67,371.56,515.02,367.19,532.73C362.82,550.45,361.36,563.31,358.45,566.23C355.54,569.14,356.21,571.62,353.59,574.21C350.92,576.83,349.33,583.21,349.33,583.21L349.33,583.21C349.33,583.21,349.81,584.01,350.53,584.52C350.55,584.51,350.56,584.5,350.56,584.5C350.56,584.5,350.55,584.51,350.55,584.53C351.4,585.13,351.82,584.95,354.14,584.66C358.14,584.16,363.56,583.95,365.74,580.07C367.85,576.33,375.74,572.69,377.78,569.56C378.76,567.92,379.8,565.78,381.03,562.86C381.28,562.28,381.67,561.76,382.17,561.38C384.32,559.76,390.15,554.85,387.01,551.04Z"/><path id="eWD5Rh6MNAl5" d="M365.25,330.69C365.25,330.69,367.02,336.81,376,341.3C384.98,345.79,391.91,345.65,396,353.27C400.08,360.89,400.76,363.34,402.05,363.06C403.34,362.79,402.66,357.35,400.9,354.9C400.9,354.9,416.27,356.4,416.27,354.22C416.27,354.22,417.22,353.27,412.46,352.86C407.7,352.45,419.81,353.27,420.08,352.32C420.35,351.37,419.26,350.82,414.37,350.82C409.47,350.82,418.18,350.82,418.99,348.64C419.8,346.46,413.28,347.96,412.6,347.96C411.92,347.96,416.68,348.12,417.36,346.88C418.04,345.65,413.14,345.65,410.69,346.05C408.24,346.46,403.62,347.27,400.76,344.42C397.9,341.57,396.54,342.65,394.09,341.56C391.64,340.47,385.38,333.53,382.94,329.73C380.49,325.92,377.64,327.55,375.59,325.11C373.54,322.67,371.37,319.13,371.37,319.13L365.25,330.69Z"/><path id="eWD5Rh6MNAl6" d="M353.18,275.31C353.18,275.31,357.36,279,345.66,284.71C345.66,284.71,323.35,286.61,319,302.39C314.65,318.17,324.98,317.9,310.02,341.56C310.02,341.56,306.48,360.87,314.92,370.94C323.36,381.01,312.74,386.17,319.27,393.25C319.27,393.25,319.54,399.51,326.34,399.78C326.34,399.78,321.44,406.58,332.87,412.02C344.3,417.46,359.8,437.59,373.95,435.42C388.1,433.25,424.28,435.69,435.7,452.56C447.13,469.43,446.31,484.39,458.01,479.76C469.71,475.14,504.8,449.02,504.53,434.87C504.53,434.87,498.27,426.71,483.31,425.89C483.31,425.89,476.51,421.81,474.88,406.3L474.61,399.77C474.61,399.77,478.96,401.4,478.69,395.96C478.42,390.52,481.14,389.43,473.25,382.63L470.53,376.1L466.18,375.56C466.18,375.56,465.64,366.58,466.18,362.23C466.72,357.88,467,350.8,460.74,353.25C454.48,355.7,450.13,361.68,437.89,361.68C425.65,361.68,414.22,360.86,410.41,372.83C410.41,372.83,382.12,372.29,378.58,368.75C375.04,365.21,377.22,361.95,367.97,352.97C358.72,343.99,358.18,340.18,360.9,335.83C363.62,331.48,365.25,330.66,365.25,330.66C365.25,330.66,374.23,324.95,373.41,318.15C372.59,311.35,370.69,318.97,370.42,303.73C370.14,288.52,353.18,275.31,353.18,275.31Z"/><path id="eWD5Rh6MNAl7" d="M413.13,205.27C405.67,207.03,400.21,212.75,398.58,214.79C396.95,216.83,392.05,223.5,385.66,228.8C379.27,234.1,380.36,238.59,376.27,241.04C372.19,243.49,352.66,277.12,350.15,282.66C329.89,327.25,367.06,318.03,368.64,300.48C369.03,296.15,370.29,288.64,372.19,283.48C374.09,278.32,379.94,258.32,382.66,255.46C385.38,252.6,394.36,242.54,395.17,239.41C395.98,236.28,407.14,221.32,408.91,219.96C410.68,218.6,414.89,221.59,423.74,216.29C432.58,210.99,436.8,208.26,437.21,207.58C437.62,206.9,438.03,205.4,435.44,206.08C435.44,206.08,444.46,202.78,444.55,200.23C444.66,197.25,420.58,203.52,413.13,205.27Z"/><linearGradient id="eWD5Rh6MNAl10-fill" x1="420.9449" y1="506.8943" x2="420.9449" y2="84.7481" spreadMethod="pad" gradientUnits="userSpaceOnUse" gradientTransform="matrix(1 0 0 1 0 0)"><stop id="eWD5Rh6MNAl10-fill-0" offset="4.03%" stop-color="rgb(37,245,233)"/><stop id="eWD5Rh6MNAl10-fill-1" offset="60.1%" stop-color="rgb(12,13,245)"/><stop id="eWD5Rh6MNAl10-fill-2" offset="100%" stop-color="rgb(6,11,47)"/></linearGradient><linearGradient id="eWD5Rh6MNAl16-fill" x1="101.2266" y1="168.215" x2="202.7369" y2="168.215" spreadMethod="pad" gradientUnits="userSpaceOnUse" gradientTransform="matrix(1 0 0 1 0 0)"><stop id="eWD5Rh6MNAl16-fill-0" offset="0%" stop-color="rgb(37,245,233)"/><stop id="eWD5Rh6MNAl16-fill-1" offset="100%" stop-color="rgb(0,0,85)"/></linearGradient><linearGradient id="eWD5Rh6MNAl33-fill" x1="347.0396" y1="480.6028" x2="359.2468" y2="480.6028" spreadMethod="pad" gradientUnits="userSpaceOnUse" gradientTransform="matrix(1 0 0 1 0 0)"><stop id="eWD5Rh6MNAl33-fill-0" offset="0%" stop-color="rgb(89,56,33)"/><stop id="eWD5Rh6MNAl33-fill-1" offset="49.56%" stop-color="rgb(95,60,36)"/><stop id="eWD5Rh6MNAl33-fill-2" offset="99.95%" stop-color="rgb(107,69,43)"/></linearGradient><linearGradient id="eWD5Rh6MNAl34-fill" x1="363.517851" y1="417.622633" x2="347.465597" y2="431.092952" spreadMethod="pad" gradientUnits="userSpaceOnUse" gradientTransform="matrix(1 0 0 1 0 0)"><stop id="eWD5Rh6MNAl34-fill-0" offset="0%" stop-color="rgb(89,56,33)"/><stop id="eWD5Rh6MNAl34-fill-1" offset="49.56%" stop-color="rgb(95,60,36)"/><stop id="eWD5Rh6MNAl34-fill-2" offset="99.95%" stop-color="rgb(107,69,43)"/></linearGradient><linearGradient id="eWD5Rh6MNAl41-fill" x1="353.6213" y1="461.9001" x2="365.0477" y2="461.9001" spreadMethod="pad" gradientUnits="userSpaceOnUse" gradientTransform="matrix(1 0 0 1 0 0)"><stop id="eWD5Rh6MNAl41-fill-0" offset="0%" stop-color="rgb(89,56,33)"/><stop id="eWD5Rh6MNAl41-fill-1" offset="49.56%" stop-color="rgb(95,60,36)"/><stop id="eWD5Rh6MNAl41-fill-2" offset="99.95%" stop-color="rgb(107,69,43)"/></linearGradient><linearGradient id="eWD5Rh6MNAl42-fill" x1="353.585307" y1="425.697396" x2="379.71684" y2="430.304467" spreadMethod="pad" gradientUnits="userSpaceOnUse" gradientTransform="matrix(1 0 0 1 0 0)"><stop id="eWD5Rh6MNAl42-fill-0" offset="0%" stop-color="rgb(107,69,43)"/><stop id="eWD5Rh6MNAl42-fill-1" offset="50.44%" stop-color="rgb(95,60,36)"/><stop id="eWD5Rh6MNAl42-fill-2" offset="100%" stop-color="rgb(89,56,33)"/></linearGradient><linearGradient id="eWD5Rh6MNAl49-fill" x1="378.57553" y1="316.736106" x2="362.522938" y2="330.206051" spreadMethod="pad" gradientUnits="userSpaceOnUse" gradientTransform="matrix(1 0 0 1 0 0)"><stop id="eWD5Rh6MNAl49-fill-0" offset="0%" stop-color="rgb(107,69,43)"/><stop id="eWD5Rh6MNAl49-fill-1" offset="50.44%" stop-color="rgb(95,60,36)"/><stop id="eWD5Rh6MNAl49-fill-2" offset="100%" stop-color="rgb(89,56,33)"/></linearGradient><linearGradient id="eWD5Rh6MNAl57-fill" x1="402.0383" y1="521.6173" x2="402.0383" y2="428.1913" spreadMethod="pad" gradientUnits="userSpaceOnUse" gradientTransform="matrix(1 0 0 1 0 0)"><stop id="eWD5Rh6MNAl57-fill-0" offset="0%" stop-color="rgb(6,11,47)"/><stop id="eWD5Rh6MNAl57-fill-1" offset="100%" stop-color="rgb(12,13,245)"/></linearGradient><linearGradient id="eWD5Rh6MNAl58-fill" x1="245.5436" y1="273.1645" x2="338.9696" y2="273.1645" spreadMethod="pad" gradientUnits="userSpaceOnUse" gradientTransform="matrix(1 0 0 1 0 0)"><stop id="eWD5Rh6MNAl58-fill-0" offset="0%" stop-color="rgb(6,11,47)"/><stop id="eWD5Rh6MNAl58-fill-1" offset="100%" stop-color="rgb(12,13,245)"/></linearGradient><linearGradient id="eWD5Rh6MNAl63-fill" x1="382.918943" y1="257.703852" x2="380.169604" y2="255.41319" spreadMethod="pad" gradientUnits="userSpaceOnUse" gradientTransform="matrix(1 0 0 1 0 0)"><stop id="eWD5Rh6MNAl63-fill-0" offset="0%" stop-color="rgb(89,56,33)"/><stop id="eWD5Rh6MNAl63-fill-1" offset="49.56%" stop-color="rgb(95,60,36)"/><stop id="eWD5Rh6MNAl63-fill-2" offset="99.95%" stop-color="rgb(107,69,43)"/></linearGradient><linearGradient id="eWD5Rh6MNAl64-fill" x1="376.512395" y1="236.512973" x2="379.261735" y2="238.803634" spreadMethod="pad" gradientUnits="userSpaceOnUse" gradientTransform="matrix(1 0 0 1 0 0)"><stop id="eWD5Rh6MNAl64-fill-0" offset="0%" stop-color="rgb(89,56,33)"/><stop id="eWD5Rh6MNAl64-fill-1" offset="49.56%" stop-color="rgb(95,60,36)"/><stop id="eWD5Rh6MNAl64-fill-2" offset="99.95%" stop-color="rgb(107,69,43)"/></linearGradient><linearGradient id="eWD5Rh6MNAl65-fill" x1="417.65152" y1="220.549676" x2="414.282358" y2="216.764325" spreadMethod="pad" gradientUnits="userSpaceOnUse" gradientTransform="matrix(1 0 0 1 0 0)"><stop id="eWD5Rh6MNAl65-fill-0" offset="0%" stop-color="rgb(89,56,33)"/><stop id="eWD5Rh6MNAl65-fill-1" offset="49.56%" stop-color="rgb(95,60,36)"/><stop id="eWD5Rh6MNAl65-fill-2" offset="99.95%" stop-color="rgb(107,69,43)"/></linearGradient><linearGradient id="eWD5Rh6MNAl66-fill" x1="350.368413" y1="315.310389" x2="350.370379" y2="281.881488" spreadMethod="pad" gradientUnits="userSpaceOnUse" gradientTransform="matrix(1 0 0 1 0 0)"><stop id="eWD5Rh6MNAl66-fill-0" offset="0%" stop-color="rgb(107,69,43)"/><stop id="eWD5Rh6MNAl66-fill-1" offset="50.44%" stop-color="rgb(95,60,36)"/><stop id="eWD5Rh6MNAl66-fill-2" offset="100%" stop-color="rgb(89,56,33)"/></linearGradient><linearGradient id="eWD5Rh6MNAl67-fill" x1="376.730409" y1="295.545732" x2="362.540757" y2="285.385585" spreadMethod="pad" gradientUnits="userSpaceOnUse" gradientTransform="matrix(1 0 0 1 0 0)"><stop id="eWD5Rh6MNAl67-fill-0" offset="0%" stop-color="rgb(89,56,33)"/><stop id="eWD5Rh6MNAl67-fill-1" offset="49.56%" stop-color="rgb(95,60,36)"/><stop id="eWD5Rh6MNAl67-fill-2" offset="99.95%" stop-color="rgb(107,69,43)"/></linearGradient></defs><g id="eWD5Rh6MNAl8"><g id="eWD5Rh6MNAl9"><use id="eWD5Rh6MNAl10" width="587.138977" height="422.14917" xlink:href="#eWD5Rh6MNAl2" transform="matrix(1 0 0 1 -0.964775 0)" fill="url(#eWD5Rh6MNAl10-fill)" stroke="none" stroke-width="1"/><g id="eWD5Rh6MNAl11" clip-path="url(#eWD5Rh6MNAl12)"><clipPath id="eWD5Rh6MNAl12"><use id="eWD5Rh6MNAl13" width="587.138977" height="422.14917" xlink:href="#eWD5Rh6MNAl2" fill="rgb(0,0,0)" stroke="none" stroke-width="1"/></clipPath><g id="eWD5Rh6MNAl14"><path id="eWD5Rh6MNAl15" d="M175.33,210.13C179.12,210.43,182.79,210.59,186.35,210.6C208.24,210.68,223.04,204.97,226.95,194.94C230.87,184.91,223.85,170.68,207.69,155.91C206.09,154.45,204.42,153,202.69,151.55C201.98,174.01,192.09,195.19,175.33,210.13L175.33,210.13Z" transform="matrix(1 0 0 1 -0.964775 0)" fill="none" stroke="none" stroke-width="1"/><path id="eWD5Rh6MNAl16" d="M197.12,178.78C192.44,190.81,184.97,201.56,175.33,210.13C174.06,211.26,172.75,212.35,171.41,213.4C158.13,223.79,141.97,229.84,125.13,230.72C119.33,221.7,114.34,212.19,110.2,202.3C109.57,200.79,108.96,199.26,108.37,197.71C107.81,196.23,107.28,194.73,106.77,193.21C100.16,173.57,98.13,151.77,108.2,134.05C118.26,116.39,138.94,106.49,159.25,105.78C170.99,105.37,182.59,107.67,193.66,111.67C199.28,122.6,202.37,134.65,202.7,146.93C202.74,148.48,202.73,150.02,202.69,151.57C202.41,160.88,200.52,170.09,197.12,178.78Z" transform="matrix(1 0 0 1 -0.964775 0.15)" fill="url(#eWD5Rh6MNAl16-fill)" stroke="none" stroke-width="1"/><path id="eWD5Rh6MNAl17" d="M230.32,196.25C225.77,207.92,210.15,214.29,186.34,214.2C181.58,214.19,176.58,213.91,171.41,213.39C152.07,211.44,130.26,206.03,108.37,197.69C107.81,196.21,107.28,194.71,106.77,193.19C107,193.29,107.24,193.38,107.47,193.47C131.17,202.72,154.82,208.5,175.32,210.12C179.11,210.42,182.79,210.58,186.34,210.59C208.23,210.68,223.03,204.96,226.94,194.93C230.86,184.9,223.84,170.68,207.68,155.9C206.08,154.44,204.42,152.99,202.68,151.55C202.73,150,202.73,148.45,202.69,146.91C205.31,149,207.78,151.11,210.11,153.24C227.7,169.32,234.87,184.59,230.32,196.25Z" transform="matrix(1 0 0 1 -0.964775 0)" fill="rgb(228,228,228)" stroke="none" stroke-width="1"/><circle id="eWD5Rh6MNAl18" r="2.56" transform="matrix(1 0 0 1 142.505225 111.63)" fill="rgb(240,240,240)" stroke="none" stroke-width="1"/><circle id="eWD5Rh6MNAl19" r="2.56" transform="matrix(1 0 0 1 186.445225 146.22)" fill="rgb(240,240,240)" stroke="none" stroke-width="1"/><circle id="eWD5Rh6MNAl20" r="24.86" transform="matrix(1 0 0 1 151.285225 159.28)" fill="rgb(240,240,240)" stroke="none" stroke-width="1"/></g></g></g><g id="eWD5Rh6MNAl21"><circle id="eWD5Rh6MNAl22" r="4.38" transform="matrix(1 0 0 1 585.98 146.78)" fill="rgb(108,99,255)" stroke="none" stroke-width="1"/><circle id="eWD5Rh6MNAl23" r="6.77" transform="matrix(1 0 0 1 679.5 282.66)" fill="rgb(247,163,26)" stroke="none" stroke-width="1"/><circle id="eWD5Rh6MNAl24" r="2.56" transform="matrix(1 0 0 1 626.41 251.32)" fill="rgb(240,240,240)" stroke="none" stroke-width="1"/><circle id="eWD5Rh6MNAl25" r="2.56" transform="matrix(1 0 0 1 270.175225 136.98)" fill="rgb(240,240,240)" stroke="none" stroke-width="1"/><circle id="eWD5Rh6MNAl26" r="2.56" transform="matrix(1 0 0 1 477.04 127.57)" fill="rgb(240,240,240)" stroke="none" stroke-width="1"/><circle id="eWD5Rh6MNAl27" r="2.56" transform="matrix(1 0 0 1 438.55 157.04)" fill="rgb(240,240,240)" stroke="none" stroke-width="1"/><path id="eWD5Rh6MNAl28" d="M585.05,306.06C582.1,301.05,577.93,289.41,573.92,276.47C569.91,263.53,566,249.22,562.14,235.09C555.38,210.35,548.61,185.62,541.85,160.89C540.92,157.49,539.99,154.08,539.06,150.65C539.77,148.64,540.49,146.63,541.24,144.64C541.99,147.69,542.77,150.74,543.58,153.75C547.08,166.62,550.82,177.31,554.42,189.66C559.97,208.66,564.57,229.53,569.28,249.6C574,269.68,579.81,292.44,585.05,306.06Z" opacity="0.3" fill="rgb(240,240,240)" stroke="none" stroke-width="1"/></g><g id="eWD5Rh6MNAl29_to" transform="translate(368.540009,463.079987)"><circle id="eWD5Rh6MNAl29" r="154.97" transform="translate(-0.083501,1.175004)" fill="rgb(247,163,26)" stroke="none" stroke-width="1"/></g><g id="eWD5Rh6MNAl30"><use id="eWD5Rh6MNAl31" width="37.030365" height="178.519958" xlink:href="#eWD5Rh6MNAl3" fill="rgb(122,83,52)" stroke="none" stroke-width="1"/><g id="eWD5Rh6MNAl32" clip-path="url(#eWD5Rh6MNAl35)"><path id="eWD5Rh6MNAl33" d="M347.34,467.96C347.23,467.85,349.49,467.49,356.42,474.5C359.64,477.75,357.44,482.08,358.92,484.64C360.4,487.2,356.41,493.29,356.41,493.29C356.41,493.29,356.12,489.71,355.73,488.05C354.98,484.82,351.73,482.89,352,475.32C352.06,473.75,347.04,468.5,347.04,468.5L347.34,467.96Z" opacity="0.29" fill="url(#eWD5Rh6MNAl33-fill)" stroke="none" stroke-width="1"/><path id="eWD5Rh6MNAl34" d="M332.15,410.76C330.99,411.64,342.74,420.93,353.53,434.9C363.33,447.6,367.9,436.44,374.69,441.58C381.48,446.72,384.77,428.33,384.77,428.33C384.77,428.33,378.31,428.38,374.88,427.38C368.21,425.44,359.42,412.85,347.28,416.57C344.77,417.34,330.47,408.31,330.47,408.31L332.15,410.76Z" opacity="0.54" fill="url(#eWD5Rh6MNAl34-fill)" stroke="none" stroke-width="1"/><clipPath id="eWD5Rh6MNAl35"><use id="eWD5Rh6MNAl36" width="37.030365" height="178.519958" xlink:href="#eWD5Rh6MNAl3" fill="rgb(0,0,0)" stroke="none" stroke-width="1"/></clipPath></g></g><polygon id="eWD5Rh6MNAl37" points="340.98,409.23 340.98,409.23 340.98,409.23" fill="rgb(107,69,43)" stroke="none" stroke-width="1"/><g id="eWD5Rh6MNAl38"><use id="eWD5Rh6MNAl39" width="49.062561" height="175.698944" xlink:href="#eWD5Rh6MNAl4" fill="rgb(107,69,43)" stroke="none" stroke-width="1"/><g id="eWD5Rh6MNAl40" clip-path="url(#eWD5Rh6MNAl43)"><path id="eWD5Rh6MNAl41" d="M354.28,449.88C354.28,449.88,357.8,452.48,361.23,455.5C364.66,458.53,362.89,462.96,364.58,465.39C366.27,467.82,362.82,474.23,362.82,474.23C362.82,474.23,362.22,470.69,361.7,469.06C360.68,465.9,357.27,464.26,356.9,456.69C356.82,455.13,353.63,449.58,353.63,449.58L354.28,449.88Z" opacity="0.29" fill="url(#eWD5Rh6MNAl41-fill)" stroke="none" stroke-width="1"/><path id="eWD5Rh6MNAl42" d="M332.15,410.76C332.15,410.76,342.6,423.16,353.53,434.9C364.46,446.64,367.9,436.44,374.69,441.58C381.48,446.72,384.77,428.33,384.77,428.33C384.77,428.33,378.31,428.38,374.88,427.38C368.21,425.44,359.42,412.85,347.28,416.57C344.77,417.34,330.47,408.31,330.47,408.31L332.15,410.76Z" opacity="0.54" fill="url(#eWD5Rh6MNAl42-fill)" stroke="none" stroke-width="1"/><clipPath id="eWD5Rh6MNAl43"><use id="eWD5Rh6MNAl44" width="49.062561" height="175.698944" xlink:href="#eWD5Rh6MNAl4" fill="rgb(0,0,0)" stroke="none" stroke-width="1"/></clipPath></g></g><path id="eWD5Rh6MNAl45" d="M353.18,275.31C353.18,275.31,351.23,267.57,351.92,265.67C352.6,263.77,355.86,263.63,357.09,261.86C358.31,260.09,363.76,260.64,363.07,258.46C362.39,256.28,364.97,258.32,367.83,256.96C370.69,255.6,397.21,247.57,400.61,259.14C404.01,270.7,402.24,301.25,385.24,297.77C368.24,294.29,367.69,294.37,367.69,294.37L353.18,275.31Z" fill="rgb(107,69,43)" stroke="none" stroke-width="1"/><g id="eWD5Rh6MNAl46"><use id="eWD5Rh6MNAl47" width="54.868073" height="43.951141" xlink:href="#eWD5Rh6MNAl5" fill="rgb(107,69,43)" stroke="none" stroke-width="1"/><g id="eWD5Rh6MNAl48" clip-path="url(#eWD5Rh6MNAl50)"><path id="eWD5Rh6MNAl49" d="M347.21,309.87C347.21,309.87,357.66,322.27,368.59,334.01C379.52,345.75,382.96,335.55,389.75,340.69C396.54,345.83,399.83,327.44,399.83,327.44C399.83,327.44,393.37,327.49,389.94,326.49C383.27,324.55,374.48,311.96,362.34,315.68C359.83,316.45,345.53,307.42,345.53,307.42L347.21,309.87Z" opacity="0.54" fill="url(#eWD5Rh6MNAl49-fill)" stroke="none" stroke-width="1"/><clipPath id="eWD5Rh6MNAl50"><use id="eWD5Rh6MNAl51" width="54.868073" height="43.951141" xlink:href="#eWD5Rh6MNAl5" fill="rgb(0,0,0)" stroke="none" stroke-width="1"/></clipPath></g></g><g id="eWD5Rh6MNAl52"><use id="eWD5Rh6MNAl53" width="195.24826" height="205.30249" xlink:href="#eWD5Rh6MNAl6" fill="rgb(12,13,245)" stroke="none" stroke-width="1"/><g id="eWD5Rh6MNAl54" transform="matrix(1 0 0 1 0 0.000001)" clip-path="url(#eWD5Rh6MNAl55)"><clipPath id="eWD5Rh6MNAl55"><use id="eWD5Rh6MNAl56" width="195.24826" height="205.30249" xlink:href="#eWD5Rh6MNAl6" fill="rgb(0,0,0)" stroke="none" stroke-width="1"/></clipPath><path id="eWD5Rh6MNAl57" d="M326.52,442.01C326.52,442.01,366.3,456.81,409.64,432.35C452.98,407.9,452.51,499.52,471.15,490.75C489.79,481.98,461.83,510.42,461.83,510.42L430.61,521.61L389.13,490.75L326.51,447.97L326.51,442.01Z" opacity="0.44" fill="url(#eWD5Rh6MNAl57-fill)" stroke="none" stroke-width="1"/><path id="eWD5Rh6MNAl58" d="M325.15,197.64C325.15,197.64,310.35,237.42,334.81,280.76C359.27,324.1,267.64,323.63,276.41,342.27C285.17,360.91,256.74,332.95,256.74,332.95L245.55,301.73L276.41,260.25L319.19,197.63L325.15,197.63Z" transform="matrix(1 0 0 1 -0.964775 0)" opacity="0.44" fill="url(#eWD5Rh6MNAl58-fill)" stroke="none" stroke-width="1"/></g></g><path id="eWD5Rh6MNAl59" d="M365.25,264.62C365.25,264.62,365.89,254.95,402.88,233.27C439.87,211.59,437.48,233.49,499.18,210.38C530.01,198.84,627.49,198.02,628.97,248.76C629.7,273.91,644.68,336.5,623.85,358C601.5,381.07,535.21,390.24,514.6,390.4C490.93,390.58,464.71,378.05,446.81,351.91C428.91,325.76,412.17,339.33,393.5,338.77C374.83,338.22,365.25,294.5,365.25,294.5L365.25,264.62Z" fill="rgb(0,1,1)" stroke="none" stroke-width="1"/><g id="eWD5Rh6MNAl60"><use id="eWD5Rh6MNAl61" width="100.428772" height="115.547485" xlink:href="#eWD5Rh6MNAl7" transform="matrix(1 0 0 1 0.000002 0)" fill="rgb(122,83,52)" stroke="none" stroke-width="1"/><g id="eWD5Rh6MNAl62" clip-path="url(#eWD5Rh6MNAl68)"><path id="eWD5Rh6MNAl63" d="M377.64,268.15C377.64,268.15,377.38,263.92,377.48,259.53C377.58,255.14,381.83,254.18,382.54,251.52C383.26,248.86,389.94,248.19,389.94,248.19C389.94,248.19,387.76,250.57,386.91,251.87C385.26,254.39,386.14,258.02,380.94,262.39C379.87,263.29,377.82,268.85,377.82,268.85L377.64,268.15Z" opacity="0.54" fill="url(#eWD5Rh6MNAl63-fill)" stroke="none" stroke-width="1"/><path id="eWD5Rh6MNAl64" d="M381.8,226.06C381.8,226.06,382.06,230.29,381.96,234.68C381.86,239.07,377.61,240.03,376.9,242.69C376.18,245.35,369.5,246.02,369.5,246.02C369.5,246.02,371.68,243.64,372.53,242.34C374.18,239.82,373.3,236.19,378.5,231.82C379.57,230.92,381.62,225.36,381.62,225.36L381.8,226.06Z" opacity="0.29" fill="url(#eWD5Rh6MNAl64-fill)" stroke="none" stroke-width="1"/><path id="eWD5Rh6MNAl65" d="M400.56,230.6C400.56,230.6,403.25,223.61,407.05,219.59C410.85,215.58,417.93,215.18,421.21,212.82C424.49,210.46,434.91,210.61,434.91,210.61C434.91,210.61,428.2,214.63,425.87,215.72C421.34,217.84,421.11,219.19,409.8,222.61C407.46,223.32,402.05,230.87,402.05,230.87L400.56,230.6Z" opacity="0.54" fill="url(#eWD5Rh6MNAl65-fill)" stroke="none" stroke-width="1"/><path id="eWD5Rh6MNAl66" d="M350.44,281.91C349.16,285.54,348.12,289.29,347.3,293.05C346.75,295.57,346.3,298.14,346.15,300.72C346,303.35,346.08,306.04,347.76,308.2C349.45,310.37,351.95,312.01,354.45,313.11C355.3,313.48,356.19,313.8,357.09,314.03C357.31,314.09,357.89,314.32,358.12,314.24C358.13,314.23,329.08,324.61,350.44,281.91Z" opacity="0.23" fill="url(#eWD5Rh6MNAl66-fill)" stroke="none" stroke-width="1"/><path id="eWD5Rh6MNAl67" d="M367.73,295.82C372.96,282.37,378.41,270.07,378.41,264.9C378.41,264.9,362.84,279.16,360.91,298.8C359.95,308.6,364.31,310.89,360.17,313.13C360.1,313.17,360.03,313.2,359.96,313.24C355.54,315.51,363.46,314.95,365.38,311.38C367.3,307.81,365.23,302.26,367.73,295.82Z" opacity="0.29" fill="url(#eWD5Rh6MNAl67-fill)" stroke="none" stroke-width="1"/><clipPath id="eWD5Rh6MNAl68" transform="matrix(1 0 0 1 0.000001 0)"><use id="eWD5Rh6MNAl69" width="100.428772" height="115.547485" xlink:href="#eWD5Rh6MNAl7" transform="matrix(1 0 0 1 0.000002 0)" fill="rgb(0,0,0)" stroke="none" stroke-width="1"/></clipPath></g></g><g id="eWD5Rh6MNAl70_to" transform="translate(411.722974,102.340323)"><g id="eWD5Rh6MNAl70" transform="translate(-406.907425,-87.093453)"><g id="eWD5Rh6MNAl71"><path id="eWD5Rh6MNAl72" d="M393,30.96C393,30.96,394.12,66.17,411.68,90.88C411.69,90.88,395.91,42.34,393,30.96Z" fill="rgb(0,1,1)" stroke="none" stroke-width="1"/><path id="eWD5Rh6MNAl73" d="M398.56,49.7L415.19,41.09C415.19,41.09,425.82,54.77,423.53,56.33C421.24,57.89,418.14,60.32,418.14,60.32C418.14,60.32,421.7,58.72,425.17,61.16C428.64,63.6,426.26,68.77,426.26,68.77C426.26,68.77,403.06,75.49,404.05,77.57C405.04,79.65,398.56,49.7,398.56,49.7Z" transform="matrix(1 0 0 1 1.27 1.59)" fill="rgb(0,1,1)" stroke="none" stroke-width="1"/><path id="eWD5Rh6MNAl74" d="M399.06,64.43C400.2,61,395.47,86.26,395.03,90.66C394.57,95.3,394.79,99.76,394.89,101.66C394.95,102.87,396.11,107.44,395.62,107.61C395.49,107.65,394.35,102.77,393.99,103.03C393.77,103.19,395.43,107.85,395.32,107.87C395.06,107.91,393.54,103.16,393.26,103.24C392.02,103.58,391.78,104.12,392.5,107.58C393.77,113.63,390.94,105.79,390.06,100.01C389.9,98.94,389.8,97.94,389.81,97.11C389.82,95.26,391.32,107.05,390.87,109.67C390.79,110.15,388.9,100.6,388.81,101.13C388.6,102.31,390.11,106.49,389.87,107.61C389.74,108.2,387.99,101.14,387.78,101.5C387.58,101.83,389.57,108.41,389.33,108.55C388.92,108.77,388.47,104.96,388.04,104.63C387.39,104.12,387.45,107.07,387.2,105.28C385.79,95.38,388.36,101.09,388.04,92.55C387.72,84.01,385.72,84.26,392.95,83.26C399.13,82.39,394.43,78.4,399.06,64.43Z" transform="matrix(1 0 0 1 -1.649689 0)" fill="rgb(0,1,1)" stroke="none" stroke-width="1"/></g><path id="eWD5Rh6MNAl75" d="M391.82,83.41C391.82,83.41,391.82,94.97,392.36,99.28C392.61,101.33,394.32,107.6,395.58,108.78C395.58,108.78,395.12,110.48,393.2,104.99C391.28,99.49,391.34,83.49,391.34,83.49L391.82,83.41Z" fill="rgb(247,163,26)" stroke="none" stroke-width="1"/><path id="eWD5Rh6MNAl76" d="M391.07,83.5C391.07,83.5,391.03,95.24,391.51,99.61C391.74,101.69,393.33,107.94,394.58,109.12C394.58,109.12,394.12,110.96,392.26,105.4C390.4,99.84,390.44,83.6,390.44,83.6L391.07,83.5Z" fill="rgb(13,13,235)" stroke="none" stroke-width="1"/></g></g><g id="eWD5Rh6MNAl77"><circle id="eWD5Rh6MNAl78" r="2.5" transform="matrix(1 0 0 1 206.835225 248.12)" fill="rgb(255,101,132)" stroke="none" stroke-width="1"/><circle id="eWD5Rh6MNAl79" r="2.56" transform="matrix(1 0 0 1 374.35 360.56)" fill="rgb(240,240,240)" stroke="none" stroke-width="1"/><circle id="eWD5Rh6MNAl80" r="2.56" transform="matrix(1 0 0 1 184.35 295.02)" fill="rgb(240,240,240)" stroke="none" stroke-width="1"/><circle id="eWD5Rh6MNAl81" r="2.56" transform="matrix(1 0 0 1 310.02 247.52)" fill="rgb(240,240,240)" stroke="none" stroke-width="1"/><path id="eWD5Rh6MNAl82" d="M257.81,322.12L176.09,254.04L255.48,324.85C256.01,325.75,257.18,326.05,258.08,325.51C258.98,324.98,259.28,323.81,258.74,322.91C258.52,322.55,258.2,322.27,257.81,322.12L257.81,322.12Z" transform="matrix(1 0 0 1 -0.964775 0)" opacity="0.3" fill="rgb(240,240,240)" stroke="none" stroke-width="1"/></g><g id="eWD5Rh6MNAl83"><circle id="eWD5Rh6MNAl84" r="2.56" transform="matrix(1 0 0 1 564.61 474.9)" fill="rgb(37,245,233)" stroke="none" stroke-width="1"/><circle id="eWD5Rh6MNAl85" r="2.56" transform="matrix(1 0 0 1 583.08 411.78)" fill="rgb(240,240,240)" stroke="none" stroke-width="1"/></g><g id="eWD5Rh6MNAl86" opacity="0.55"><g id="eWD5Rh6MNAl87"><g id="eWD5Rh6MNAl88"><path id="eWD5Rh6MNAl89" d="M359.49,264.41L359.52,264.41C359.52,264.41,359.52,264.41,359.52,264.41C359.53,264.41,359.53,264.41,359.54,264.41C359.54,264.41,359.54,264.41,359.54,264.41L359.57,264.41C359.57,264.39,359.55,264.38,359.53,264.38C359.51,264.37,359.49,264.39,359.49,264.41Z" fill="rgb(87,61,44)" stroke="none" stroke-width="1"/><path id="eWD5Rh6MNAl90" d="M357.98,263.57L358.01,263.54L358.01,263.53L358.02,263.51C358.02,263.48,358,263.46,357.98,263.45C357.96,263.44,357.95,263.44,357.93,263.44C357.88,263.44,357.85,263.48,357.85,263.52L357.86,263.53L357.88,263.56C357.91,263.58,357.94,263.58,357.95,263.58L357.98,263.57L357.98,263.57L357.98,263.57Z" fill="rgb(87,61,44)" stroke="none" stroke-width="1"/><path id="eWD5Rh6MNAl91" d="M357.66,263.18L357.66,263.18C357.67,263.19,357.69,263.2,357.72,263.19L357.73,263.18L357.74,263.17L357.75,263.16C357.75,263.15,357.75,263.14,357.75,263.13C357.75,263.13,357.75,263.12,357.75,263.12L357.75,263.11L357.74,263.1L357.73,263.09C357.71,263.08,357.68,263.08,357.66,263.09C357.64,263.1,357.63,263.12,357.63,263.14L357.63,263.15L357.64,263.17L357.66,263.18L357.66,263.18Z" fill="rgb(87,61,44)" stroke="none" stroke-width="1"/><path id="eWD5Rh6MNAl92" d="M359.37,261.57C359.37,261.58,359.38,261.59,359.39,261.59L359.4,261.58C359.4,261.58,359.4,261.58,359.4,261.58L359.39,261.58L359.4,261.58C359.4,261.58,359.4,261.56,359.38,261.56L359.37,261.56C359.37,261.56,359.37,261.57,359.37,261.57Z" fill="rgb(87,61,44)" stroke="none" stroke-width="1"/><path id="eWD5Rh6MNAl93" d="M355.98,262.66L355.99,262.65L355.99,262.64L355.98,262.63C355.97,262.63,355.97,262.63,355.96,262.63C355.95,262.64,355.95,262.66,355.96,262.67C355.97,262.67,355.98,262.67,355.98,262.66L355.98,262.66C355.99,262.66,355.98,262.66,355.98,262.66Z" fill="rgb(87,61,44)" stroke="none" stroke-width="1"/><path id="eWD5Rh6MNAl94" d="M358.19,263.58L358.22,263.56L358.23,263.55L358.24,263.51C358.24,263.49,358.23,263.47,358.22,263.46C358.21,263.42,358.18,263.4,358.14,263.4C358.13,263.4,358.11,263.41,358.1,263.41C358.08,263.42,358.07,263.45,358.07,263.48C358.07,263.48,358.07,263.48,358.07,263.48L358.08,263.5C358.08,263.5,358.08,263.5,358.08,263.51C358.08,263.54,358.1,263.56,358.12,263.57C358.13,263.59,358.16,263.59,358.19,263.58Z" fill="rgb(87,61,44)" stroke="none" stroke-width="1"/><path id="eWD5Rh6MNAl95" d="M359.12,263.43L359.13,263.39L359.13,263.37L359.11,263.33L359.1,263.32L359.06,263.31C359.04,263.31,359.02,263.32,359,263.33C358.99,263.35,358.98,263.37,358.98,263.39L358.98,263.41L359,263.44L359.01,263.45L359.05,263.46L359.06,263.46L359.1,263.44L359.12,263.43Z" fill="rgb(87,61,44)" stroke="none" stroke-width="1"/><path id="eWD5Rh6MNAl96" d="M360.36,262.35L360.37,262.36C360.37,262.36,360.38,262.36,360.38,262.36L360.4,262.35C360.4,262.35,360.4,262.35,360.4,262.35C360.4,262.35,360.4,262.34,360.4,262.33C360.4,262.33,360.4,262.33,360.4,262.32L360.39,262.31C360.38,262.31,360.37,262.31,360.36,262.32C360.36,262.33,360.35,262.34,360.36,262.35Z" fill="rgb(87,61,44)" stroke="none" stroke-width="1"/><path id="eWD5Rh6MNAl97" d="M358.24,261.77L358.25,261.78C358.26,261.79,358.27,261.79,358.28,261.79C358.29,261.78,358.29,261.77,358.29,261.77L358.28,261.76C358.28,261.76,358.28,261.76,358.27,261.76C358.27,261.76,358.26,261.76,358.25,261.76C358.24,261.75,358.24,261.76,358.24,261.77Z" fill="rgb(87,61,44)" stroke="none" stroke-width="1"/><path id="eWD5Rh6MNAl98" d="M358.06,263.19L358.06,263.19L358.11,263.2C358.11,263.23,358.1,263.25,358.08,263.26C358.08,263.28,358.07,263.3,358.06,263.31C358.06,263.31,358.06,263.31,358.06,263.31C358.06,263.31,358.07,263.3,358.06,263.29L358.04,263.34L358.02,263.35L357.99,263.35L357.99,263.36L357.97,263.36L357.96,263.36L357.96,263.36L357.94,263.35L357.93,263.34L357.91,263.3C357.91,263.28,357.92,263.25,357.94,263.24C357.94,263.23,357.93,263.22,357.93,263.21L357.94,263.17L357.95,263.16L357.99,263.14C358.02,263.14,358.05,263.13,358.08,263.16L358.09,263.18L358.09,263.19L358.09,263.21L358.06,263.19ZM357.95,263.25L357.96,263.24C357.96,263.24,357.96,263.23,357.96,263.23C357.95,263.23,357.95,263.24,357.95,263.25Z" fill="rgb(87,61,44)" stroke="none" stroke-width="1"/><path id="eWD5Rh6MNAl99" d="M357.74,262.44C357.73,262.45,357.73,262.46,357.73,262.47L357.74,262.49L357.75,262.51C357.75,262.51,357.76,262.52,357.77,262.52L357.79,262.52L357.8,262.52L357.82,262.51C357.83,262.5,357.83,262.49,357.83,262.47C357.83,262.45,357.81,262.42,357.79,262.41L357.77,262.41L357.76,262.41L357.74,262.44Z" fill="rgb(87,61,44)" stroke="none" stroke-width="1"/><path id="eWD5Rh6MNAl100" d="M359.04,262.46L359.06,262.45L359.07,262.44L359.04,262.41L359.04,262.41C359.04,262.41,359.04,262.41,359.04,262.4L358.99,262.4C358.99,262.43,359,262.44,359.01,262.45C359.01,262.45,359.02,262.46,359.04,262.46Z" fill="rgb(87,61,44)" stroke="none" stroke-width="1"/><path id="eWD5Rh6MNAl101" d="M357.31,263.28L357.32,263.26L357.32,263.25L357.31,263.23L357.29,263.22C357.29,263.22,357.28,263.21,357.27,263.21L357.25,263.22L357.23,263.24C357.23,263.24,357.22,263.25,357.22,263.28C357.22,263.28,357.22,263.28,357.22,263.28L357.23,263.3L357.24,263.31L357.26,263.32L357.28,263.32L357.3,263.31L357.31,263.28Z" fill="rgb(87,61,44)" stroke="none" stroke-width="1"/><path id="eWD5Rh6MNAl102" d="M356.57,263.52L356.57,263.51C356.57,263.51,356.55,263.5,356.54,263.5C356.53,263.5,356.53,263.51,356.53,263.53L356.54,263.54C356.54,263.54,356.54,263.54,356.55,263.54C356.55,263.54,356.57,263.54,356.57,263.52Z" fill="rgb(87,61,44)" stroke="none" stroke-width="1"/><path id="eWD5Rh6MNAl103" d="M356.33,264.24C356.33,264.23,356.32,264.22,356.31,264.22C356.3,264.22,356.29,264.23,356.29,264.24L356.3,264.25C356.31,264.25,356.32,264.25,356.32,264.24L356.33,264.24Z" fill="rgb(87,61,44)" stroke="none" stroke-width="1"/><path id="eWD5Rh6MNAl104" d="M358.43,264.27L358.4,264.32C358.4,264.31,358.4,264.3,358.4,264.3C358.4,264.31,358.39,264.33,358.39,264.35C358.39,264.36,358.39,264.36,358.39,264.37L358.41,264.4L358.42,264.41L358.46,264.42L358.47,264.42L358.49,264.43C358.52,264.43,358.54,264.42,358.55,264.41L358.55,264.41C358.57,264.4,358.6,264.39,358.61,264.36L358.61,264.31L358.61,264.3L358.61,264.3C358.6,264.27,358.57,264.25,358.54,264.24C358.51,264.22,358.47,264.22,358.44,264.25L358.43,264.27Z" fill="rgb(87,61,44)" stroke="none" stroke-width="1"/><path id="eWD5Rh6MNAl105" d="M359.58,265.02C359.59,265.03,359.6,265.06,359.63,265.05L359.64,265.04C359.64,265.04,359.64,265.03,359.64,265.03C359.64,265.02,359.63,265.02,359.63,265.01C359.63,265,359.63,264.99,359.62,264.99L359.61,264.99C359.61,264.99,359.6,264.98,359.59,264.99L359.58,265.02C359.58,265.01,359.58,265.01,359.58,265.02Z" fill="rgb(87,61,44)" stroke="none" stroke-width="1"/><path id="eWD5Rh6MNAl106" d="M358.72,264.82L358.73,264.82L358.75,264.81C358.75,264.81,358.76,264.8,358.76,264.8L358.77,264.78C358.77,264.77,358.76,264.76,358.75,264.75C358.74,264.74,358.73,264.74,358.71,264.74C358.68,264.74,358.66,264.76,358.67,264.79L358.69,264.8C358.69,264.8,358.69,264.81,358.7,264.81L358.72,264.82Z" fill="rgb(87,61,44)" stroke="none" stroke-width="1"/><path id="eWD5Rh6MNAl107" d="M358.49,264.58L358.47,264.59L358.45,264.61C358.45,264.61,358.44,264.62,358.44,264.63L358.45,264.65L358.47,264.67C358.47,264.67,358.48,264.68,358.49,264.68L358.51,264.67L358.53,264.65C358.53,264.65,358.54,264.64,358.54,264.63L358.53,264.61L358.51,264.59C358.5,264.59,358.5,264.58,358.49,264.58Z" fill="rgb(87,61,44)" stroke="none" stroke-width="1"/><path id="eWD5Rh6MNAl108" d="M359.33,265.74C359.32,265.74,359.31,265.74,359.31,265.75C359.31,265.75,359.3,265.76,359.31,265.78L359.32,265.79C359.33,265.79,359.34,265.79,359.35,265.77C359.35,265.77,359.35,265.77,359.35,265.77L359.33,265.74Z" fill="rgb(87,61,44)" stroke="none" stroke-width="1"/><path id="eWD5Rh6MNAl109" d="M358.8,264.13C358.8,264.17,358.83,264.2,358.87,264.2L358.88,264.2L358.89,264.2C358.92,264.2,358.94,264.19,358.96,264.18L358.97,264.16L358.97,264.15L358.97,264.13C358.97,264.09,358.94,264.06,358.9,264.06C358.9,264.06,358.9,264.06,358.89,264.06L358.88,264.06C358.86,264.06,358.83,264.07,358.82,264.08C358.8,264.08,358.8,264.1,358.8,264.13Z" fill="rgb(87,61,44)" stroke="none" stroke-width="1"/><path id="eWD5Rh6MNAl110" d="M358.81,263.3L358.82,263.35L358.83,263.37L358.84,263.38L358.84,263.38C358.87,263.42,358.9,263.41,358.92,263.41L358.95,263.39L358.96,263.38L358.96,263.38L358.97,263.37L358.98,263.36L358.99,263.33L358.99,263.32C358.99,263.3,358.98,263.29,358.98,263.28C358.98,263.28,358.98,263.28,358.98,263.27L358.98,263.27L358.97,263.26L358.96,263.25L358.92,263.23C358.85,263.24,358.82,263.26,358.81,263.3Z" fill="rgb(87,61,44)" stroke="none" stroke-width="1"/><path id="eWD5Rh6MNAl111" d="M359.36,263.36L359.37,263.35L359.39,263.31L359.39,263.31C359.39,263.29,359.38,263.27,359.37,263.26L359.37,263.24L359.36,263.23L359.33,263.21C359.32,263.21,359.28,263.2,359.26,263.24C359.25,263.25,359.25,263.26,359.24,263.28C359.23,263.29,359.22,263.31,359.22,263.34L359.23,263.35C359.23,263.36,359.24,263.37,359.24,263.38L359.29,263.4L359.3,263.4L359.32,263.39L359.32,263.39L359.36,263.36Z" fill="rgb(87,61,44)" stroke="none" stroke-width="1"/><path id="eWD5Rh6MNAl112" d="M358.35,263.3C358.32,263.31,358.31,263.34,358.31,263.37L358.31,263.39L358.33,263.42L358.34,263.43L358.37,263.44C358.4,263.44,358.42,263.43,358.44,263.42C358.45,263.4,358.46,263.38,358.46,263.36C358.46,263.33,358.44,263.31,358.42,263.3C358.4,263.28,358.37,263.28,358.35,263.3L358.35,263.3Z" fill="rgb(87,61,44)" stroke="none" stroke-width="1"/><path id="eWD5Rh6MNAl113" d="M361.14,263.44L361.14,263.44L361.15,263.46C361.16,263.46,361.17,263.46,361.17,263.45C361.18,263.44,361.18,263.44,361.18,263.43C361.18,263.43,361.18,263.43,361.18,263.42L361.17,263.41C361.14,263.41,361.14,263.43,361.14,263.44Z" fill="rgb(87,61,44)" stroke="none" stroke-width="1"/><path id="eWD5Rh6MNAl114" d="M358.32,263.69L358.32,263.64C358.32,263.63,358.31,263.6,358.28,263.58L358.25,263.58L358.24,263.58L358.21,263.6C358.19,263.62,358.19,263.64,358.19,263.66C358.19,263.68,358.2,263.71,358.22,263.72C358.24,263.73,358.26,263.74,358.28,263.74L358.32,263.71L358.32,263.69Z" fill="rgb(87,61,44)" stroke="none" stroke-width="1"/><path id="eWD5Rh6MNAl115" d="M359.05,263.62C359.06,263.68,359.11,263.69,359.14,263.68L359.16,263.67L359.17,263.66C359.18,263.64,359.19,263.62,359.19,263.6C359.19,263.56,359.15,263.52,359.1,263.53L359.06,263.55L359.05,263.57L359.05,263.62Z" fill="rgb(87,61,44)" stroke="none" stroke-width="1"/><path id="eWD5Rh6MNAl116" d="M356.93,262.05C356.93,262.05,356.94,262.05,356.95,262.05L356.96,262.04L356.96,262.04C356.96,262.03,356.95,262.02,356.94,262.02L356.92,262.04C356.92,262.04,356.92,262.05,356.93,262.05Z" fill="rgb(87,61,44)" stroke="none" stroke-width="1"/><path id="eWD5Rh6MNAl117" d="M359.43,262.67C359.43,262.67,359.43,262.67,359.43,262.67L359.44,262.68L359.45,262.7L359.47,262.72C359.47,262.72,359.48,262.73,359.49,262.73L359.51,262.72L359.53,262.7C359.53,262.7,359.54,262.69,359.54,262.68L359.54,262.67C359.54,262.66,359.54,262.66,359.54,262.65L359.54,262.64L359.54,262.64C359.54,262.62,359.51,262.6,359.49,262.6C359.46,262.61,359.43,262.63,359.43,262.67Z" fill="rgb(87,61,44)" stroke="none" stroke-width="1"/><path id="eWD5Rh6MNAl118" d="M357.69,261.62C357.69,261.62,357.68,261.63,357.68,261.64L357.69,261.65C357.69,261.65,357.69,261.65,357.69,261.65C357.69,261.65,357.7,261.66,357.71,261.65L357.72,261.64L357.72,261.62L357.71,261.61C357.7,261.61,357.69,261.61,357.69,261.62Z" fill="rgb(87,61,44)" stroke="none" stroke-width="1"/><path id="eWD5Rh6MNAl119" d="M358.87,262.75L358.86,262.72L358.85,262.71L358.81,262.7C358.78,262.7,358.74,262.72,358.73,262.79L358.75,262.84L358.77,262.86C358.8,262.88,358.83,262.87,358.84,262.87L358.86,262.86L358.87,262.85C358.89,262.83,358.89,262.81,358.89,262.79C358.88,262.77,358.87,262.76,358.87,262.75L358.87,262.75Z" fill="rgb(87,61,44)" stroke="none" stroke-width="1"/><path id="eWD5Rh6MNAl120" d="M357.83,262.83L357.79,262.81L357.79,262.81C357.79,262.81,357.79,262.81,357.79,262.81L357.79,262.81L357.79,262.81C357.79,262.81,357.79,262.81,357.79,262.81L357.77,262.86C357.79,262.87,357.81,262.87,357.83,262.86L357.83,262.83Z" fill="rgb(87,61,44)" stroke="none" stroke-width="1"/><path id="eWD5Rh6MNAl121" d="M358.49,262.83L358.51,262.79C358.51,262.78,358.52,262.77,358.52,262.75C358.52,262.73,358.51,262.7,358.49,262.69C358.47,262.68,358.44,262.68,358.41,262.69L358.39,262.71L358.38,262.72L358.37,262.75L358.37,262.76C358.37,262.81,358.41,262.84,358.45,262.84L358.48,262.83L358.49,262.83Z" fill="rgb(87,61,44)" stroke="none" stroke-width="1"/><path id="eWD5Rh6MNAl122" d="M360.3,262.9C360.3,262.9,360.31,262.9,360.31,262.9L360.31,262.89C360.31,262.89,360.31,262.89,360.31,262.89L360.32,262.88L360.32,262.87L360.31,262.86C360.3,262.86,360.3,262.86,360.29,262.86C360.29,262.87,360.29,262.89,360.3,262.9Z" fill="rgb(87,61,44)" stroke="none" stroke-width="1"/><path id="eWD5Rh6MNAl123" d="M358.08,262.8L358.07,262.78L358.07,262.78C358.06,262.76,358.04,262.75,358.04,262.75L358.02,262.75L358.01,262.76L358,262.78C358,262.78,358,262.79,358,262.8C358,262.81,358.01,262.82,358.02,262.83L358.04,262.84L358.06,262.84C358.06,262.84,358.08,262.82,358.08,262.8Z" fill="rgb(87,61,44)" stroke="none" stroke-width="1"/><path id="eWD5Rh6MNAl124" d="M358.48,263.06L358.51,263.1L358.53,263.11L358.54,263.11L358.55,263.11L358.56,263.11C358.56,263.11,358.55,263.11,358.55,263.11L358.59,263.11C358.59,263.11,358.59,263.11,358.58,263.11L358.6,263.11L358.62,263.1L358.65,263.06C358.65,263.05,358.65,263.04,358.65,263.03C358.65,263,358.63,262.96,358.58,262.96L358.56,263.01L358.55,262.96L358.53,262.96L358.48,263.02L358.48,263.06Z" fill="rgb(87,61,44)" stroke="none" stroke-width="1"/><path id="eWD5Rh6MNAl125" d="M359.64,262.21C359.63,262.21,359.63,262.22,359.63,262.22L359.63,262.23C359.64,262.24,359.65,262.24,359.65,262.24C359.66,262.24,359.66,262.22,359.66,262.21C359.66,262.2,359.65,262.19,359.65,262.19C359.65,262.2,359.65,262.2,359.64,262.21L359.64,262.21Z" fill="rgb(87,61,44)" stroke="none" stroke-width="1"/><path id="eWD5Rh6MNAl126" d="M358.94,263L358.91,262.99C358.88,262.99,358.86,263,358.84,263.01C358.82,263.03,358.82,263.05,358.82,263.08L358.82,263.09L358.84,263.12L358.85,263.13L358.88,263.14C358.91,263.14,358.93,263.13,358.95,263.12C358.97,263.1,358.98,263.08,358.97,263.06L358.97,263.05L358.95,263.02L358.94,263Z" fill="rgb(87,61,44)" stroke="none" stroke-width="1"/><path id="eWD5Rh6MNAl127" d="M359.69,262.91L359.69,262.92C359.69,262.95,359.71,262.97,359.74,262.97C359.77,262.97,359.8,262.96,359.81,262.93L359.81,262.92L359.81,262.91L359.81,262.9C359.8,262.88,359.78,262.87,359.76,262.86C359.74,262.86,359.72,262.86,359.71,262.88L359.69,262.91Z" fill="rgb(87,61,44)" stroke="none" stroke-width="1"/><path id="eWD5Rh6MNAl128" d="M359.11,262.84L359.08,262.85L359.07,262.86L359.06,262.9L359.06,262.92L359.08,262.96L359.09,262.97L359.13,262.98C359.16,262.98,359.19,262.97,359.2,262.95C359.22,262.93,359.23,262.91,359.23,262.89L359.23,262.87L359.23,262.86L359.22,262.84C359.18,262.84,359.15,262.82,359.11,262.84L359.11,262.84Z" fill="rgb(87,61,44)" stroke="none" stroke-width="1"/><path id="eWD5Rh6MNAl129" d="M360.74,261.65L360.75,261.66C360.75,261.66,360.75,261.66,360.75,261.66C360.75,261.66,360.76,261.67,360.76,261.67L360.77,261.66C360.77,261.66,360.77,261.66,360.77,261.66C360.77,261.66,360.77,261.65,360.77,261.64C360.77,261.64,360.77,261.64,360.77,261.63L360.76,261.62L360.75,261.62L360.74,261.65C360.75,261.64,360.74,261.64,360.74,261.65Z" fill="rgb(87,61,44)" stroke="none" stroke-width="1"/><path id="eWD5Rh6MNAl130" d="M359.5,263.16L359.49,263.18L359.49,263.2L359.5,263.22L359.51,263.23L359.53,263.24L359.55,263.24L359.57,263.23L359.58,263.22L359.59,263.2L359.59,263.19C359.59,263.17,359.58,263.16,359.57,263.15C359.56,263.14,359.54,263.14,359.52,263.14L359.5,263.15L359.5,263.16Z" fill="rgb(87,61,44)" stroke="none" stroke-width="1"/><path id="eWD5Rh6MNAl131" d="M358.32,262.53L358.32,262.56L358.33,262.57L358.33,262.57C358.34,262.6,358.36,262.61,358.38,262.61L358.4,262.6C358.41,262.59,358.42,262.57,358.42,262.56C358.42,262.54,358.4,262.51,358.38,262.51C358.35,262.5,358.33,262.51,358.32,262.53Z" fill="rgb(87,61,44)" stroke="none" stroke-width="1"/><path id="eWD5Rh6MNAl132" d="M358.41,262.11C358.41,262.11,358.4,262.12,358.4,262.13L358.41,262.15L358.43,262.17C358.43,262.17,358.44,262.18,358.45,262.18L358.47,262.17L358.49,262.15C358.49,262.15,358.5,262.14,358.5,262.13L358.49,262.11L358.47,262.09C358.47,262.09,358.46,262.08,358.45,262.08L358.43,262.09L358.41,262.11Z" fill="rgb(87,61,44)" stroke="none" stroke-width="1"/><path id="eWD5Rh6MNAl133" d="M358.81,262.53L358.8,262.55L358.79,262.58C358.79,262.6,358.8,262.61,358.81,262.62C358.82,262.63,358.84,262.63,358.85,262.62L358.86,262.61L358.87,262.6L358.87,262.6C358.88,262.6,358.88,262.6,358.89,262.6C358.91,262.59,358.92,262.57,358.92,262.54L358.92,262.53L358.91,262.51L358.9,262.5L358.89,262.49C358.86,262.49,358.84,262.49,358.83,262.51L358.81,262.53Z" fill="rgb(87,61,44)" stroke="none" stroke-width="1"/><path id="eWD5Rh6MNAl134" d="M359.18,262.55L359.21,262.58L359.22,262.58C359.23,262.58,359.24,262.59,359.25,262.58L359.26,262.58L359.26,262.58L359.27,262.57L359.27,262.57L359.27,262.57L359.29,262.55C359.29,262.54,359.28,262.53,359.27,262.52C359.26,262.51,359.25,262.51,359.23,262.51C359.2,262.5,359.18,262.52,359.18,262.55Z" fill="rgb(87,61,44)" stroke="none" stroke-width="1"/><path id="eWD5Rh6MNAl135" d="M359.65,262.62L359.64,262.64C359.64,262.66,359.65,262.7,359.68,262.71L359.71,262.7L359.72,262.68L359.72,262.66L359.72,262.65C359.72,262.64,359.72,262.62,359.7,262.61C359.69,262.6,359.68,262.6,359.66,262.6L359.64,262.61L359.65,262.62Z" fill="rgb(87,61,44)" stroke="none" stroke-width="1"/><path id="eWD5Rh6MNAl136" d="M359.45,263.72L359.41,263.73L359.4,263.73C359.39,263.73,359.38,263.74,359.37,263.75C359.37,263.75,359.36,263.75,359.35,263.74L359.3,263.75L359.29,263.76L359.27,263.8C359.27,263.81,359.26,263.82,359.26,263.84L359.26,263.84L359.22,263.86L359.22,263.86L359.21,263.87L359.19,263.91L359.19,263.92L359.21,263.96L359.21,263.97L359.21,263.97L359.22,263.98L359.26,264L359.27,264L359.31,263.98L359.31,263.98L359.32,263.97L359.34,263.93L359.34,263.92L359.35,263.92L359.37,263.91L359.4,263.87C359.41,263.87,359.42,263.87,359.43,263.87C359.47,263.86,359.49,263.83,359.49,263.79C359.49,263.76,359.47,263.73,359.45,263.72Z" fill="rgb(87,61,44)" stroke="none" stroke-width="1"/><path id="eWD5Rh6MNAl137" d="M358,263.93C358.02,263.94,358.04,263.95,358.06,263.94L358.08,263.93L358.09,263.92C358.11,263.9,358.12,263.87,358.11,263.85C358.11,263.83,358.1,263.8,358.08,263.79C358.06,263.78,358.04,263.77,358.02,263.78C357.98,263.79,357.96,263.82,357.96,263.86C357.97,263.89,357.98,263.92,358,263.93Z" fill="rgb(87,61,44)" stroke="none" stroke-width="1"/><path id="eWD5Rh6MNAl138" d="M357.25,264.59L357.23,264.58C357.21,264.58,357.2,264.59,357.21,264.61L357.22,264.62C357.22,264.62,357.23,264.62,357.23,264.62L357.25,264.61L357.25,264.59Z" fill="rgb(87,61,44)" stroke="none" stroke-width="1"/><path id="eWD5Rh6MNAl139" d="M359.82,263.27C359.82,263.27,359.82,263.28,359.82,263.29L359.83,263.3C359.84,263.31,359.86,263.32,359.88,263.31C359.9,263.3,359.92,263.28,359.92,263.27L359.92,263.26L359.92,263.25L359.91,263.24C359.89,263.22,359.87,263.22,359.85,263.23C359.83,263.23,359.81,263.25,359.82,263.27Z" fill="rgb(87,61,44)" stroke="none" stroke-width="1"/><path id="eWD5Rh6MNAl140" d="M359.77,263.61C359.74,263.62,359.73,263.64,359.73,263.67C359.73,263.69,359.74,263.71,359.76,263.72L359.78,263.72L359.8,263.72L359.82,263.71C359.83,263.7,359.83,263.69,359.83,263.67C359.83,263.66,359.83,263.66,359.83,263.65L359.83,263.65L359.83,263.63L359.82,263.61L359.77,263.61Z" fill="rgb(87,61,44)" stroke="none" stroke-width="1"/><path id="eWD5Rh6MNAl141" d="M358.41,265.71L358.41,265.73L358.42,265.74C358.43,265.74,358.44,265.74,358.45,265.73C358.46,265.72,358.46,265.72,358.46,265.72C358.46,265.72,358.46,265.71,358.45,265.7L358.44,265.7C358.44,265.7,358.43,265.7,358.42,265.7L358.41,265.71Z" fill="rgb(87,61,44)" stroke="none" stroke-width="1"/><path id="eWD5Rh6MNAl142" d="M360.47,263.59C360.47,263.59,360.48,263.59,360.48,263.59L360.48,263.58C360.48,263.58,360.48,263.58,360.47,263.58L360.48,263.57L360.48,263.56L360.47,263.55C360.46,263.55,360.46,263.55,360.45,263.55C360.46,263.57,360.46,263.59,360.47,263.59Z" fill="rgb(87,61,44)" stroke="none" stroke-width="1"/><path id="eWD5Rh6MNAl143" d="M358.73,263.74L358.73,263.74C358.77,263.73,358.79,263.7,358.79,263.68L358.77,263.63L358.77,263.63C358.75,263.59,358.71,263.59,358.7,263.6C358.68,263.6,358.66,263.61,358.64,263.65L358.64,263.67C358.64,263.68,358.64,263.69,358.64,263.69C358.64,263.72,358.67,263.75,358.7,263.75L358.73,263.74Z" fill="rgb(87,61,44)" stroke="none" stroke-width="1"/><path id="eWD5Rh6MNAl144" d="M359.93,263.36L359.91,263.37L359.9,263.39C359.9,263.41,359.91,263.43,359.94,263.44L359.95,263.41C359.95,263.41,359.95,263.41,359.95,263.41L359.95,263.4C359.96,263.4,359.96,263.4,359.96,263.4L359.96,263.37L359.96,263.37C359.96,263.37,359.96,263.37,359.96,263.37L359.96,263.34C359.96,263.34,359.96,263.34,359.95,263.34L359.93,263.36Z" fill="rgb(87,61,44)" stroke="none" stroke-width="1"/><path id="eWD5Rh6MNAl145" d="M358.7,263.49C358.71,263.48,358.73,263.46,358.73,263.42L358.73,263.41L358.73,263.4C358.72,263.37,358.68,263.35,358.65,263.35C358.64,263.35,358.63,263.36,358.62,263.36L358.62,263.36C358.57,263.37,358.55,263.4,358.55,263.41L358.56,263.46L358.57,263.48L358.6,263.49L358.6,263.5C358.61,263.5,358.62,263.51,358.65,263.51L358.68,263.5C358.67,263.5,358.69,263.5,358.7,263.49Z" fill="rgb(87,61,44)" stroke="none" stroke-width="1"/><path id="eWD5Rh6MNAl146" d="M359.69,263.32L359.69,263.32C359.69,263.32,359.67,263.31,359.66,263.31L359.64,263.32L359.63,263.33L359.62,263.35L359.62,263.36C359.62,263.39,359.64,263.41,359.67,263.41C359.7,263.41,359.72,263.39,359.72,263.36L359.71,263.34L359.69,263.32L359.69,263.32Z" fill="rgb(87,61,44)" stroke="none" stroke-width="1"/><path id="eWD5Rh6MNAl147" d="M357.63,263.63L357.63,263.63L357.63,263.63C357.65,263.65,357.67,263.65,357.68,263.64C357.7,263.64,357.71,263.63,357.71,263.61C357.72,263.6,357.73,263.59,357.73,263.57L357.73,263.56L357.73,263.55L357.72,263.54C357.71,263.53,357.7,263.53,357.69,263.52C357.7,263.52,357.71,263.51,357.71,263.51C357.72,263.5,357.73,263.48,357.73,263.47C357.73,263.45,357.72,263.44,357.71,263.43C357.7,263.42,357.68,263.42,357.66,263.43L357.65,263.44C357.64,263.45,357.64,263.46,357.64,263.48C357.64,263.49,357.64,263.49,357.65,263.5L357.66,263.52L357.67,263.53L357.67,263.53L357.66,263.53L357.65,263.53L357.64,263.54C357.64,263.54,357.63,263.55,357.63,263.55L357.63,263.55L357.61,263.57C357.61,263.57,357.6,263.58,357.6,263.59L357.61,263.61L357.63,263.63C357.61,263.62,357.62,263.62,357.63,263.63Z" fill="rgb(87,61,44)" stroke="none" stroke-width="1"/><path id="eWD5Rh6MNAl148" d="M356.94,262.77C356.94,262.77,356.94,262.77,356.94,262.77C356.93,262.77,356.93,262.78,356.93,262.79L356.94,262.8L356.95,262.8C356.95,262.8,356.95,262.8,356.95,262.8C356.95,262.8,356.95,262.8,356.95,262.8L356.96,262.8L356.97,262.79L356.97,262.77L356.95,262.76C356.95,262.76,356.95,262.76,356.95,262.76C356.95,262.76,356.94,262.75,356.93,262.75C356.92,262.75,356.92,262.76,356.92,262.76L356.94,262.77Z" fill="rgb(87,61,44)" stroke="none" stroke-width="1"/><polygon id="eWD5Rh6MNAl149" points="357.6,263.68 357.6,263.66 357.6,263.65 357.59,263.63 357.58,263.62 357.56,263.61 357.54,263.61 357.52,263.62 357.51,263.63 357.5,263.65 357.51,263.67 357.51,263.68 357.53,263.7 357.55,263.7 357.57,263.7 357.59,263.69" fill="rgb(87,61,44)" stroke="none" stroke-width="1"/><path id="eWD5Rh6MNAl150" d="M359.42,263.49L359.41,263.51C359.41,263.52,359.4,263.53,359.4,263.56C359.4,263.56,359.4,263.56,359.4,263.56L359.41,263.59L359.42,263.6L359.44,263.61C359.46,263.62,359.49,263.62,359.51,263.61C359.53,263.6,359.55,263.57,359.54,263.54C359.54,263.52,359.53,263.5,359.51,263.48C359.49,263.47,359.47,263.46,359.45,263.47L359.42,263.49Z" fill="rgb(87,61,44)" stroke="none" stroke-width="1"/><path id="eWD5Rh6MNAl151" d="M358.43,263.56L358.42,263.5L358.41,263.49C358.39,263.46,358.36,263.45,358.32,263.46L358.29,263.49L358.28,263.5L358.28,263.51C358.28,263.51,358.28,263.5,358.29,263.5L358.28,263.56L358.29,263.58L358.34,263.61C358.4,263.61,358.42,263.57,358.43,263.56Z" fill="rgb(87,61,44)" stroke="none" stroke-width="1"/><path id="eWD5Rh6MNAl152" d="M360.41,264.37L360.42,264.38C360.43,264.38,360.44,264.38,360.44,264.37C360.44,264.37,360.45,264.36,360.45,264.35L360.45,264.35C360.45,264.34,360.44,264.33,360.44,264.33C360.43,264.33,360.43,264.32,360.42,264.32L360.41,264.33L360.41,264.37Z" fill="rgb(87,61,44)" stroke="none" stroke-width="1"/><path id="eWD5Rh6MNAl153" d="M357.74,264.32L357.75,264.34L357.76,264.35L357.78,264.36C357.79,264.36,357.81,264.36,357.82,264.35C357.82,264.35,357.81,264.35,357.81,264.35L357.82,264.34C357.84,264.34,357.87,264.33,357.87,264.29C357.88,264.28,357.88,264.27,357.88,264.25C357.88,264.24,357.87,264.22,357.86,264.21C357.85,264.21,357.85,264.2,357.83,264.21C357.82,264.19,357.81,264.18,357.79,264.18L357.77,264.19L357.76,264.21L357.75,264.22C357.75,264.23,357.74,264.24,357.75,264.25L357.75,264.27L357.76,264.28C357.74,264.29,357.74,264.3,357.74,264.32Z" fill="rgb(87,61,44)" stroke="none" stroke-width="1"/><path id="eWD5Rh6MNAl154" d="M359.83,264.76L359.85,264.77C359.85,264.77,359.85,264.77,359.85,264.77C359.85,264.77,359.85,264.77,359.85,264.77C359.85,264.77,359.86,264.78,359.87,264.77C359.88,264.77,359.88,264.76,359.88,264.75L359.87,264.74C359.86,264.74,359.85,264.73,359.84,264.74C359.83,264.74,359.83,264.75,359.83,264.76Z" fill="rgb(87,61,44)" stroke="none" stroke-width="1"/><path id="eWD5Rh6MNAl155" d="M358.23,264.9L358.23,264.87L358.22,264.85L358.2,264.84L358.18,264.84L358.16,264.85L358.15,264.86L358.14,264.88L358.14,264.89C358.14,264.92,358.16,264.93,358.18,264.93L358.2,264.93L358.22,264.92L358.23,264.9L358.21,264.89L358.21,264.89L358.23,264.9Z" fill="rgb(87,61,44)" stroke="none" stroke-width="1"/><path id="eWD5Rh6MNAl156" d="M359.02,264.66L359.02,264.68C359.02,264.71,359.05,264.73,359.06,264.73L359.09,264.73L359.11,264.72L359.12,264.7L359.12,264.69C359.12,264.67,359.11,264.66,359.1,264.65C359.09,264.64,359.08,264.64,359.06,264.64L359.04,264.65L359.02,264.66Z" fill="rgb(87,61,44)" stroke="none" stroke-width="1"/><path id="eWD5Rh6MNAl157" d="M359.19,264.75L359.19,264.78L359.2,264.8L359.21,264.81C359.21,264.81,359.22,264.82,359.23,264.82L359.25,264.81L359.27,264.79C359.27,264.79,359.28,264.78,359.28,264.76L359.28,264.75L359.28,264.74L359.27,264.73C359.26,264.72,359.24,264.71,359.23,264.72C359.2,264.72,359.19,264.74,359.19,264.75Z" fill="rgb(87,61,44)" stroke="none" stroke-width="1"/><path id="eWD5Rh6MNAl158" d="M358.58,265.03L358.59,265.06L358.61,265.07L358.63,265.07C358.64,265.07,358.66,265.08,358.68,265.06C358.69,265.05,358.7,265.04,358.7,265.02L358.69,265L358.67,264.99L358.64,264.99C358.61,264.99,358.59,265,358.58,265.03Z" fill="rgb(87,61,44)" stroke="none" stroke-width="1"/><path id="eWD5Rh6MNAl159" d="M359.19,264.33L359.18,264.37C359.18,264.42,359.22,264.44,359.25,264.44L359.28,264.43L359.29,264.42L359.31,264.4C359.32,264.39,359.35,264.36,359.34,264.32C359.34,264.31,359.34,264.3,359.33,264.29L359.31,264.27L359.3,264.26L359.27,264.25C359.25,264.25,359.22,264.25,359.21,264.27C359.19,264.29,359.19,264.31,359.19,264.33Z" fill="rgb(87,61,44)" stroke="none" stroke-width="1"/><path id="eWD5Rh6MNAl160" d="M359.75,264.3C359.75,264.31,359.74,264.32,359.74,264.33L359.79,264.33C359.79,264.33,359.79,264.33,359.79,264.33L359.8,264.33L359.77,264.29L359.76,264.3L359.75,264.3Z" fill="rgb(87,61,44)" stroke="none" stroke-width="1"/><path id="eWD5Rh6MNAl161" d="M359.97,261.7L359.96,261.69C359.96,261.69,359.95,261.69,359.95,261.69L359.94,261.7C359.94,261.7,359.94,261.7,359.94,261.71L359.95,261.72C359.95,261.72,359.95,261.72,359.96,261.72L359.97,261.7C359.96,261.71,359.97,261.7,359.97,261.7Z" fill="rgb(87,61,44)" stroke="none" stroke-width="1"/><path id="eWD5Rh6MNAl162" d="M357.91,265.13L357.92,265.11L357.92,265.11C357.92,265.1,357.91,265.07,357.86,265.06L357.84,265.07L357.83,265.08L357.82,265.11C357.82,265.13,357.83,265.14,357.84,265.15C357.85,265.16,357.87,265.16,357.89,265.16L357.91,265.15L357.91,265.13Z" fill="rgb(87,61,44)" stroke="none" stroke-width="1"/><path id="eWD5Rh6MNAl163" d="M359.61,264.4L359.6,264.42L359.6,264.44L359.61,264.46L359.62,264.47L359.64,264.48C359.67,264.48,359.68,264.47,359.69,264.47C359.7,264.46,359.71,264.45,359.71,264.43C359.71,264.41,359.7,264.4,359.69,264.39C359.68,264.38,359.66,264.38,359.64,264.38L359.63,264.39L359.61,264.4Z" fill="rgb(87,61,44)" stroke="none" stroke-width="1"/><path id="eWD5Rh6MNAl164" d="M357.87,266.12L357.87,266.12C357.89,266.12,357.89,266.12,357.9,266.12C357.91,266.11,357.91,266.11,357.91,266.1C357.91,266.09,357.91,266.08,357.9,266.08L357.89,266.08C357.88,266.08,357.87,266.08,357.87,266.09C357.85,266.09,357.86,266.11,357.87,266.12Z" fill="rgb(87,61,44)" stroke="none" stroke-width="1"/><path id="eWD5Rh6MNAl165" d="M360.06,266.33L360.06,266.33L360.08,266.32L360.08,266.31C360.08,266.3,360.08,266.29,360.07,266.28C360.06,266.28,360.06,266.27,360.05,266.28L360.04,266.29C360.04,266.31,360.05,266.32,360.06,266.33Z" fill="rgb(87,61,44)" stroke="none" stroke-width="1"/><path id="eWD5Rh6MNAl166" d="M359.35,264.44L359.33,264.45L359.32,264.46L359.31,264.48L359.31,264.51L359.32,264.53L359.33,264.54L359.35,264.55C359.37,264.55,359.38,264.55,359.39,264.54C359.4,264.53,359.41,264.52,359.41,264.5C359.4,264.47,359.38,264.44,359.35,264.44Z" fill="rgb(87,61,44)" stroke="none" stroke-width="1"/><path id="eWD5Rh6MNAl167" d="M358.41,265.16L358.41,265.16L358.43,265.18C358.45,265.16,358.45,265.14,358.45,265.14C358.45,265.12,358.43,265.1,358.42,265.09L358.41,265.08L358.38,265.07L358.36,265.08L358.34,265.1C358.34,265.17,358.38,265.18,358.39,265.18L358.41,265.16L358.41,265.16Z" fill="rgb(87,61,44)" stroke="none" stroke-width="1"/><path id="eWD5Rh6MNAl168" d="M358.7,265.12C358.69,265.12,358.65,265.11,358.64,265.16L358.64,265.18L358.65,265.2L358.67,265.19L358.67,265.19L358.7,265.19L358.72,265.21L358.73,265.2L358.74,265.18L358.74,265.16L358.73,265.14L358.72,265.13L358.7,265.12Z" fill="rgb(87,61,44)" stroke="none" stroke-width="1"/><path id="eWD5Rh6MNAl169" d="M358.24,264.33L358.23,264.31L358.2,264.28L358.2,264.28C358.16,264.24,358.12,264.26,358.1,264.27L358.08,264.29L358.07,264.3L358.06,264.33L358.06,264.35L358.08,264.39L358.09,264.4L358.13,264.41C358.16,264.41,358.19,264.39,358.21,264.37L358.24,264.33Z" fill="rgb(87,61,44)" stroke="none" stroke-width="1"/><path id="eWD5Rh6MNAl170" d="M359.07,264.44L359.08,264.43L359.09,264.4L359.09,264.39C359.09,264.37,359.08,264.35,359.06,264.33C359.05,264.32,359.02,264.31,358.99,264.31L358.96,264.33L358.95,264.34L358.94,264.38C358.94,264.42,358.96,264.44,358.98,264.45C359.01,264.47,359.05,264.46,359.06,264.45L359.07,264.44Z" fill="rgb(87,61,44)" stroke="none" stroke-width="1"/><path id="eWD5Rh6MNAl171" d="M357.68,264.78L357.7,264.77L357.72,264.75C357.72,264.75,357.73,264.74,357.73,264.73L357.72,264.71L357.7,264.69C357.7,264.69,357.69,264.68,357.68,264.68L357.66,264.69L357.64,264.71C357.64,264.71,357.63,264.72,357.63,264.73L357.64,264.75L357.66,264.77C357.67,264.77,357.67,264.78,357.68,264.78Z" fill="rgb(87,61,44)" stroke="none" stroke-width="1"/><path id="eWD5Rh6MNAl172" d="M357.56,264.38L357.57,264.37C357.58,264.36,357.59,264.34,357.59,264.33L357.58,264.31L357.57,264.3L357.55,264.29C357.53,264.29,357.51,264.29,357.5,264.31L357.49,264.31L357.48,264.32L357.47,264.34L357.47,264.36C357.47,264.37,357.48,264.38,357.49,264.39C357.51,264.4,357.52,264.4,357.53,264.4L357.56,264.38Z" fill="rgb(87,61,44)" stroke="none" stroke-width="1"/><path id="eWD5Rh6MNAl173" d="M357.52,263.96L357.53,263.94L357.53,263.93L357.53,263.92L357.52,263.91L357.51,263.9C357.49,263.89,357.47,263.89,357.46,263.89C357.45,263.89,357.44,263.9,357.43,263.93L357.44,263.95L357.46,263.97C357.47,263.98,357.49,263.98,357.5,263.98L357.52,263.97L357.52,263.96Z" fill="rgb(87,61,44)" stroke="none" stroke-width="1"/><path id="eWD5Rh6MNAl174" d="M359.04,263.97L359.06,263.95C359.06,263.94,359.07,263.92,359.07,263.9C359.07,263.86,359.04,263.83,359,263.83L358.96,263.85L358.96,263.85C358.93,263.86,358.92,263.89,358.92,263.9L358.93,263.95L358.93,263.95C358.95,263.98,358.97,263.99,358.98,263.99L359.02,263.98L359.04,263.97Z" fill="rgb(87,61,44)" stroke="none" stroke-width="1"/><path id="eWD5Rh6MNAl175" d="M358.64,266.51C358.64,266.52,358.64,266.53,358.65,266.53C358.66,266.54,358.67,266.54,358.68,266.53L358.69,266.52C358.69,266.52,358.69,266.52,358.69,266.51C358.69,266.5,358.68,266.49,358.66,266.49C358.66,266.49,358.66,266.49,358.65,266.49C358.65,266.49,358.65,266.49,358.65,266.49L358.64,266.51Z" fill="rgb(87,61,44)" stroke="none" stroke-width="1"/><path id="eWD5Rh6MNAl176" d="M357.57,265.26L357.57,265.26C357.56,265.24,357.55,265.24,357.54,265.25C357.53,265.25,357.53,265.26,357.53,265.28L357.54,265.29C357.56,265.29,357.57,265.27,357.57,265.26Z" fill="rgb(87,61,44)" stroke="none" stroke-width="1"/><path id="eWD5Rh6MNAl177" d="M358.01,264.68L358,264.7C358,264.71,358.01,264.73,358.02,264.73C358.03,264.74,358.04,264.74,358.05,264.74C358.08,264.74,358.1,264.72,358.1,264.69L358.07,264.66L358.07,264.66C358.06,264.66,358.06,264.65,358.05,264.65L358.02,264.66C358.01,264.67,358.01,264.68,358.01,264.68Z" fill="rgb(87,61,44)" stroke="none" stroke-width="1"/><path id="eWD5Rh6MNAl178" d="M356.79,264.83L356.78,264.82C356.78,264.82,356.78,264.82,356.77,264.82L356.76,264.83C356.76,264.83,356.76,264.83,356.76,264.84L356.77,264.85C356.77,264.85,356.77,264.85,356.78,264.85L356.79,264.83C356.78,264.84,356.79,264.83,356.79,264.83Z" fill="rgb(87,61,44)" stroke="none" stroke-width="1"/><path id="eWD5Rh6MNAl179" d="M358.94,265.34C358.95,265.35,358.96,265.35,358.97,265.35C358.98,265.35,358.98,265.34,358.98,265.33C358.98,265.32,358.98,265.32,358.97,265.31C358.96,265.31,358.96,265.31,358.94,265.32L358.94,265.34Z" fill="rgb(87,61,44)" stroke="none" stroke-width="1"/><path id="eWD5Rh6MNAl180" d="M358.58,264.68C358.58,264.69,358.58,264.69,358.58,264.7L358.59,264.72L358.6,264.73L358.61,264.73L358.64,264.73L358.65,264.73C358.67,264.73,358.68,264.72,358.69,264.71L358.7,264.69L358.7,264.68C358.7,264.65,358.68,264.64,358.65,264.63L358.65,264.63L358.64,264.62L358.62,264.62L358.6,264.63C358.59,264.63,358.58,264.65,358.58,264.68Z" fill="rgb(87,61,44)" stroke="none" stroke-width="1"/><path id="eWD5Rh6MNAl181" d="M360.19,265.69L360.2,265.7L360.21,265.7L360.22,265.69L360.22,265.67L360.21,265.66C360.2,265.66,360.2,265.66,360.19,265.67C360.19,265.67,360.19,265.68,360.19,265.69Z" fill="rgb(87,61,44)" stroke="none" stroke-width="1"/><path id="eWD5Rh6MNAl182" d="M357.86,264.11L357.86,264.1L357.86,264.09L357.84,264.07C357.82,264.07,357.81,264.07,357.8,264.08C357.79,264.09,357.78,264.1,357.78,264.12C357.78,264.14,357.79,264.16,357.81,264.16C357.83,264.16,357.85,264.16,357.86,264.14L357.86,264.11Z" fill="rgb(87,61,44)" stroke="none" stroke-width="1"/><path id="eWD5Rh6MNAl183" d="M360.69,264.98L360.7,264.99C360.7,264.99,360.7,264.99,360.71,264.99L360.72,264.98C360.72,264.98,360.72,264.97,360.72,264.97L360.71,264.96C360.71,264.96,360.7,264.96,360.7,264.96L360.69,264.98C360.7,264.97,360.7,264.98,360.69,264.98Z" fill="rgb(87,61,44)" stroke="none" stroke-width="1"/><path id="eWD5Rh6MNAl184" d="M358.69,263.98L358.71,263.97L358.73,263.93L358.73,263.91C358.73,263.87,358.7,263.83,358.63,263.83L358.59,263.85L358.58,263.86L358.57,263.9L358.57,263.92L358.58,263.95L358.59,263.96L358.61,263.98C358.63,263.99,358.65,263.99,358.66,263.99L358.66,263.99L358.69,263.98Z" fill="rgb(87,61,44)" stroke="none" stroke-width="1"/><path id="eWD5Rh6MNAl185" d="M359.86,264.04L359.86,264.06L359.87,264.08L359.87,264.08C359.88,264.09,359.89,264.11,359.93,264.1L359.95,264.09L359.96,264.08L359.97,264.06L359.97,264.02L359.96,264L359.95,263.99L359.93,263.98C359.89,263.99,359.87,264.01,359.86,264.04Z" fill="rgb(87,61,44)" stroke="none" stroke-width="1"/><path id="eWD5Rh6MNAl186" d="M356.79,265.8L356.8,265.81C356.8,265.81,356.8,265.81,356.81,265.81L356.82,265.8C356.82,265.8,356.82,265.79,356.82,265.79L356.81,265.78C356.81,265.78,356.81,265.78,356.8,265.78L356.79,265.8C356.79,265.79,356.79,265.79,356.79,265.8Z" fill="rgb(87,61,44)" stroke="none" stroke-width="1"/><path id="eWD5Rh6MNAl187" d="M359.08,261.78C359.08,261.78,359.07,261.79,359.07,261.8L359.07,261.8L359.08,261.81C359.09,261.81,359.1,261.81,359.1,261.8C359.1,261.8,359.11,261.79,359.11,261.78L359.11,261.78L359.1,261.77C359.09,261.77,359.08,261.78,359.08,261.78Z" fill="rgb(87,61,44)" stroke="none" stroke-width="1"/><path id="eWD5Rh6MNAl188" d="M357.09,263.95L357.08,263.94C357.07,263.94,357.06,263.95,357.06,263.95L357.06,263.95C357.06,263.95,357.06,263.95,357.05,263.95C357.04,263.95,357.03,263.96,357.03,263.97L357.04,263.98C357.08,263.99,357.09,263.97,357.09,263.95Z" fill="rgb(87,61,44)" stroke="none" stroke-width="1"/><path id="eWD5Rh6MNAl189" d="M358.47,264.03L358.47,264.03C358.47,264.02,358.45,264.02,358.42,264.02L358.38,264.04L358.37,264.05L358.36,264.07L358.36,264.07C358.36,264.08,358.35,264.09,358.35,264.11C358.35,264.14,358.37,264.17,358.41,264.18L358.46,264.17L358.47,264.16C358.51,264.14,358.51,264.1,358.51,264.08L358.51,264.08L358.49,264.04L358.48,264.03L358.47,264.03Z" fill="rgb(87,61,44)" stroke="none" stroke-width="1"/></g></g></g></g></svg>